<svg width="572" height="198" viewBox="0 0 572 198" fill="none" xmlns="http://www.w3.org/2000/svg">
<path d="M33 160L67.006 166.603L55.7211 133.851L33 160ZM132.018 77.6674C130.197 93.9944 119.876 108.291 105.611 120.314C91.3745 132.313 73.5287 141.769 57.3777 148.433L59.6661 153.979C76.1544 147.177 94.6062 137.436 109.478 124.902C124.322 112.391 135.92 96.8177 137.982 78.3326L132.018 77.6674Z" fill="#AE0721"/>
<path d="M68.2812 49.5742H70.5312C70.4141 50.6523 70.1055 51.6172 69.6055 52.4688C69.1055 53.3203 68.3984 53.9961 67.4844 54.4961C66.5703 54.9883 65.4297 55.2344 64.0625 55.2344C63.0625 55.2344 62.1523 55.0469 61.332 54.6719C60.5195 54.2969 59.8203 53.7656 59.2344 53.0781C58.6484 52.3828 58.1953 51.5508 57.875 50.582C57.5625 49.6055 57.4062 48.5195 57.4062 47.3242V45.625C57.4062 44.4297 57.5625 43.3477 57.875 42.3789C58.1953 41.4023 58.6523 40.5664 59.2461 39.8711C59.8477 39.1758 60.5703 38.6406 61.4141 38.2656C62.2578 37.8906 63.207 37.7031 64.2617 37.7031C65.5508 37.7031 66.6406 37.9453 67.5312 38.4297C68.4219 38.9141 69.1133 39.5859 69.6055 40.4453C70.1055 41.2969 70.4141 42.2852 70.5312 43.4102H68.2812C68.1719 42.6133 67.9688 41.9297 67.6719 41.3594C67.375 40.7812 66.9531 40.3359 66.4062 40.0234C65.8594 39.7109 65.1445 39.5547 64.2617 39.5547C63.5039 39.5547 62.8359 39.6992 62.2578 39.9883C61.6875 40.2773 61.207 40.6875 60.8164 41.2188C60.4336 41.75 60.1445 42.3867 59.9492 43.1289C59.7539 43.8711 59.6562 44.6953 59.6562 45.6016V47.3242C59.6562 48.1602 59.7422 48.9453 59.9141 49.6797C60.0938 50.4141 60.3633 51.0586 60.7227 51.6133C61.082 52.168 61.5391 52.6055 62.0938 52.9258C62.6484 53.2383 63.3047 53.3945 64.0625 53.3945C65.0234 53.3945 65.7891 53.2422 66.3594 52.9375C66.9297 52.6328 67.3594 52.1953 67.6484 51.625C67.9453 51.0547 68.1562 50.3711 68.2812 49.5742ZM75.6406 37V55H73.4609V37H75.6406ZM81.4766 42.3203V55H79.2969V42.3203H81.4766ZM79.1328 38.957C79.1328 38.6055 79.2383 38.3086 79.4492 38.0664C79.668 37.8242 79.9883 37.7031 80.4102 37.7031C80.8242 37.7031 81.1406 37.8242 81.3594 38.0664C81.5859 38.3086 81.6992 38.6055 81.6992 38.957C81.6992 39.293 81.5859 39.582 81.3594 39.8242C81.1406 40.0586 80.8242 40.1758 80.4102 40.1758C79.9883 40.1758 79.668 40.0586 79.4492 39.8242C79.2383 39.582 79.1328 39.293 79.1328 38.957ZM90.0312 53.4531C90.5469 53.4531 91.0234 53.3477 91.4609 53.1367C91.8984 52.9258 92.2578 52.6367 92.5391 52.2695C92.8203 51.8945 92.9805 51.4688 93.0195 50.9922H95.082C95.043 51.7422 94.7891 52.4414 94.3203 53.0898C93.8594 53.7305 93.2539 54.25 92.5039 54.6484C91.7539 55.0391 90.9297 55.2344 90.0312 55.2344C89.0781 55.2344 88.2461 55.0664 87.5352 54.7305C86.832 54.3945 86.2461 53.9336 85.7773 53.3477C85.3164 52.7617 84.9688 52.0898 84.7344 51.332C84.5078 50.5664 84.3945 49.7578 84.3945 48.9062V48.4141C84.3945 47.5625 84.5078 46.7578 84.7344 46C84.9688 45.2344 85.3164 44.5586 85.7773 43.9727C86.2461 43.3867 86.832 42.9258 87.5352 42.5898C88.2461 42.2539 89.0781 42.0859 90.0312 42.0859C91.0234 42.0859 91.8906 42.2891 92.6328 42.6953C93.375 43.0938 93.957 43.6406 94.3789 44.3359C94.8086 45.0234 95.043 45.8047 95.082 46.6797H93.0195C92.9805 46.1562 92.832 45.6836 92.5742 45.2617C92.3242 44.8398 91.9805 44.5039 91.543 44.2539C91.1133 43.9961 90.6094 43.8672 90.0312 43.8672C89.3672 43.8672 88.8086 44 88.3555 44.2656C87.9102 44.5234 87.5547 44.875 87.2891 45.3203C87.0312 45.7578 86.8438 46.2461 86.7266 46.7852C86.6172 47.3164 86.5625 47.8594 86.5625 48.4141V48.9062C86.5625 49.4609 86.6172 50.0078 86.7266 50.5469C86.8359 51.0859 87.0195 51.5742 87.2773 52.0117C87.543 52.4492 87.8984 52.8008 88.3438 53.0664C88.7969 53.3242 89.3594 53.4531 90.0312 53.4531ZM99.6992 37V55H97.5195V37H99.6992ZM107.445 42.3203L101.914 48.2383L98.8203 51.4492L98.6445 49.1406L100.859 46.4922L104.797 42.3203H107.445ZM105.465 55L100.941 48.9531L102.066 47.0195L108.02 55H105.465ZM115.062 48.8008V48.5312C115.062 47.6172 115.195 46.7695 115.461 45.9883C115.727 45.1992 116.109 44.5156 116.609 43.9375C117.109 43.3516 117.715 42.8984 118.426 42.5781C119.137 42.25 119.934 42.0859 120.816 42.0859C121.707 42.0859 122.508 42.25 123.219 42.5781C123.938 42.8984 124.547 43.3516 125.047 43.9375C125.555 44.5156 125.941 45.1992 126.207 45.9883C126.473 46.7695 126.605 47.6172 126.605 48.5312V48.8008C126.605 49.7148 126.473 50.5625 126.207 51.3438C125.941 52.125 125.555 52.8086 125.047 53.3945C124.547 53.9727 123.941 54.4258 123.23 54.7539C122.527 55.0742 121.73 55.2344 120.84 55.2344C119.949 55.2344 119.148 55.0742 118.438 54.7539C117.727 54.4258 117.117 53.9727 116.609 53.3945C116.109 52.8086 115.727 52.125 115.461 51.3438C115.195 50.5625 115.062 49.7148 115.062 48.8008ZM117.23 48.5312V48.8008C117.23 49.4336 117.305 50.0312 117.453 50.5938C117.602 51.1484 117.824 51.6406 118.121 52.0703C118.426 52.5 118.805 52.8398 119.258 53.0898C119.711 53.332 120.238 53.4531 120.84 53.4531C121.434 53.4531 121.953 53.332 122.398 53.0898C122.852 52.8398 123.227 52.5 123.523 52.0703C123.82 51.6406 124.043 51.1484 124.191 50.5938C124.348 50.0312 124.426 49.4336 124.426 48.8008V48.5312C124.426 47.9062 124.348 47.3164 124.191 46.7617C124.043 46.1992 123.816 45.7031 123.512 45.2734C123.215 44.8359 122.84 44.4922 122.387 44.2422C121.941 43.9922 121.418 43.8672 120.816 43.8672C120.223 43.8672 119.699 43.9922 119.246 44.2422C118.801 44.4922 118.426 44.8359 118.121 45.2734C117.824 45.7031 117.602 46.1992 117.453 46.7617C117.305 47.3164 117.23 47.9062 117.23 48.5312ZM131.492 45.0273V55H129.324V42.3203H131.375L131.492 45.0273ZM130.977 48.1797L130.074 48.1445C130.082 47.2773 130.211 46.4766 130.461 45.7422C130.711 45 131.062 44.3555 131.516 43.8086C131.969 43.2617 132.508 42.8398 133.133 42.543C133.766 42.2383 134.465 42.0859 135.23 42.0859C135.855 42.0859 136.418 42.1719 136.918 42.3438C137.418 42.5078 137.844 42.7734 138.195 43.1406C138.555 43.5078 138.828 43.9844 139.016 44.5703C139.203 45.1484 139.297 45.8555 139.297 46.6914V55H137.117V46.668C137.117 46.0039 137.02 45.4727 136.824 45.0742C136.629 44.668 136.344 44.375 135.969 44.1953C135.594 44.0078 135.133 43.9141 134.586 43.9141C134.047 43.9141 133.555 44.0273 133.109 44.2539C132.672 44.4805 132.293 44.793 131.973 45.1914C131.66 45.5898 131.414 46.0469 131.234 46.5625C131.062 47.0703 130.977 47.6094 130.977 48.1797ZM153.852 42.3203V43.9844H146.996V42.3203H153.852ZM149.316 39.2383H151.484V51.8594C151.484 52.2891 151.551 52.6133 151.684 52.832C151.816 53.0508 151.988 53.1953 152.199 53.2656C152.41 53.3359 152.637 53.3711 152.879 53.3711C153.059 53.3711 153.246 53.3555 153.441 53.3242C153.645 53.2852 153.797 53.2539 153.898 53.2305L153.91 55C153.738 55.0547 153.512 55.1055 153.23 55.1523C152.957 55.207 152.625 55.2344 152.234 55.2344C151.703 55.2344 151.215 55.1289 150.77 54.918C150.324 54.707 149.969 54.3555 149.703 53.8633C149.445 53.3633 149.316 52.6914 149.316 51.8477V39.2383ZM158.562 37V55H156.395V37H158.562ZM158.047 48.1797L157.145 48.1445C157.152 47.2773 157.281 46.4766 157.531 45.7422C157.781 45 158.133 44.3555 158.586 43.8086C159.039 43.2617 159.578 42.8398 160.203 42.543C160.836 42.2383 161.535 42.0859 162.301 42.0859C162.926 42.0859 163.488 42.1719 163.988 42.3438C164.488 42.5078 164.914 42.7734 165.266 43.1406C165.625 43.5078 165.898 43.9844 166.086 44.5703C166.273 45.1484 166.367 45.8555 166.367 46.6914V55H164.188V46.668C164.188 46.0039 164.09 45.4727 163.895 45.0742C163.699 44.668 163.414 44.375 163.039 44.1953C162.664 44.0078 162.203 43.9141 161.656 43.9141C161.117 43.9141 160.625 44.0273 160.18 44.2539C159.742 44.4805 159.363 44.793 159.043 45.1914C158.73 45.5898 158.484 46.0469 158.305 46.5625C158.133 47.0703 158.047 47.6094 158.047 48.1797ZM174.875 55.2344C173.992 55.2344 173.191 55.0859 172.473 54.7891C171.762 54.4844 171.148 54.0586 170.633 53.5117C170.125 52.9648 169.734 52.3164 169.461 51.5664C169.188 50.8164 169.051 49.9961 169.051 49.1055V48.6133C169.051 47.582 169.203 46.6641 169.508 45.8594C169.812 45.0469 170.227 44.3594 170.75 43.7969C171.273 43.2344 171.867 42.8086 172.531 42.5195C173.195 42.2305 173.883 42.0859 174.594 42.0859C175.5 42.0859 176.281 42.2422 176.938 42.5547C177.602 42.8672 178.145 43.3047 178.566 43.8672C178.988 44.4219 179.301 45.0781 179.504 45.8359C179.707 46.5859 179.809 47.4062 179.809 48.2969V49.2695H170.34V47.5H177.641V47.3359C177.609 46.7734 177.492 46.2266 177.289 45.6953C177.094 45.1641 176.781 44.7266 176.352 44.3828C175.922 44.0391 175.336 43.8672 174.594 43.8672C174.102 43.8672 173.648 43.9727 173.234 44.1836C172.82 44.3867 172.465 44.6914 172.168 45.0977C171.871 45.5039 171.641 46 171.477 46.5859C171.312 47.1719 171.23 47.8477 171.23 48.6133V49.1055C171.23 49.707 171.312 50.2734 171.477 50.8047C171.648 51.3281 171.895 51.7891 172.215 52.1875C172.543 52.5859 172.938 52.8984 173.398 53.125C173.867 53.3516 174.398 53.4648 174.992 53.4648C175.758 53.4648 176.406 53.3086 176.938 52.9961C177.469 52.6836 177.934 52.2656 178.332 51.7422L179.645 52.7852C179.371 53.1992 179.023 53.5938 178.602 53.9688C178.18 54.3438 177.66 54.6484 177.043 54.8828C176.434 55.1172 175.711 55.2344 174.875 55.2344ZM190.648 42.3203V55H188.469V42.3203H190.648ZM188.305 38.957C188.305 38.6055 188.41 38.3086 188.621 38.0664C188.84 37.8242 189.16 37.7031 189.582 37.7031C189.996 37.7031 190.312 37.8242 190.531 38.0664C190.758 38.3086 190.871 38.6055 190.871 38.957C190.871 39.293 190.758 39.582 190.531 39.8242C190.312 40.0586 189.996 40.1758 189.582 40.1758C189.16 40.1758 188.84 40.0586 188.621 39.8242C188.41 39.582 188.305 39.293 188.305 38.957ZM199.203 53.4531C199.719 53.4531 200.195 53.3477 200.633 53.1367C201.07 52.9258 201.43 52.6367 201.711 52.2695C201.992 51.8945 202.152 51.4688 202.191 50.9922H204.254C204.215 51.7422 203.961 52.4414 203.492 53.0898C203.031 53.7305 202.426 54.25 201.676 54.6484C200.926 55.0391 200.102 55.2344 199.203 55.2344C198.25 55.2344 197.418 55.0664 196.707 54.7305C196.004 54.3945 195.418 53.9336 194.949 53.3477C194.488 52.7617 194.141 52.0898 193.906 51.332C193.68 50.5664 193.566 49.7578 193.566 48.9062V48.4141C193.566 47.5625 193.68 46.7578 193.906 46C194.141 45.2344 194.488 44.5586 194.949 43.9727C195.418 43.3867 196.004 42.9258 196.707 42.5898C197.418 42.2539 198.25 42.0859 199.203 42.0859C200.195 42.0859 201.062 42.2891 201.805 42.6953C202.547 43.0938 203.129 43.6406 203.551 44.3359C203.98 45.0234 204.215 45.8047 204.254 46.6797H202.191C202.152 46.1562 202.004 45.6836 201.746 45.2617C201.496 44.8398 201.152 44.5039 200.715 44.2539C200.285 43.9961 199.781 43.8672 199.203 43.8672C198.539 43.8672 197.98 44 197.527 44.2656C197.082 44.5234 196.727 44.875 196.461 45.3203C196.203 45.7578 196.016 46.2461 195.898 46.7852C195.789 47.3164 195.734 47.8594 195.734 48.4141V48.9062C195.734 49.4609 195.789 50.0078 195.898 50.5469C196.008 51.0859 196.191 51.5742 196.449 52.0117C196.715 52.4492 197.07 52.8008 197.516 53.0664C197.969 53.3242 198.531 53.4531 199.203 53.4531ZM206.117 48.8008V48.5312C206.117 47.6172 206.25 46.7695 206.516 45.9883C206.781 45.1992 207.164 44.5156 207.664 43.9375C208.164 43.3516 208.77 42.8984 209.48 42.5781C210.191 42.25 210.988 42.0859 211.871 42.0859C212.762 42.0859 213.562 42.25 214.273 42.5781C214.992 42.8984 215.602 43.3516 216.102 43.9375C216.609 44.5156 216.996 45.1992 217.262 45.9883C217.527 46.7695 217.66 47.6172 217.66 48.5312V48.8008C217.66 49.7148 217.527 50.5625 217.262 51.3438C216.996 52.125 216.609 52.8086 216.102 53.3945C215.602 53.9727 214.996 54.4258 214.285 54.7539C213.582 55.0742 212.785 55.2344 211.895 55.2344C211.004 55.2344 210.203 55.0742 209.492 54.7539C208.781 54.4258 208.172 53.9727 207.664 53.3945C207.164 52.8086 206.781 52.125 206.516 51.3438C206.25 50.5625 206.117 49.7148 206.117 48.8008ZM208.285 48.5312V48.8008C208.285 49.4336 208.359 50.0312 208.508 50.5938C208.656 51.1484 208.879 51.6406 209.176 52.0703C209.48 52.5 209.859 52.8398 210.312 53.0898C210.766 53.332 211.293 53.4531 211.895 53.4531C212.488 53.4531 213.008 53.332 213.453 53.0898C213.906 52.8398 214.281 52.5 214.578 52.0703C214.875 51.6406 215.098 51.1484 215.246 50.5938C215.402 50.0312 215.48 49.4336 215.48 48.8008V48.5312C215.48 47.9062 215.402 47.3164 215.246 46.7617C215.098 46.1992 214.871 45.7031 214.566 45.2734C214.27 44.8359 213.895 44.4922 213.441 44.2422C212.996 43.9922 212.473 43.8672 211.871 43.8672C211.277 43.8672 210.754 43.9922 210.301 44.2422C209.855 44.4922 209.48 44.8359 209.176 45.2734C208.879 45.7031 208.656 46.1992 208.508 46.7617C208.359 47.3164 208.285 47.9062 208.285 48.5312ZM222.547 45.0273V55H220.379V42.3203H222.43L222.547 45.0273ZM222.031 48.1797L221.129 48.1445C221.137 47.2773 221.266 46.4766 221.516 45.7422C221.766 45 222.117 44.3555 222.57 43.8086C223.023 43.2617 223.562 42.8398 224.188 42.543C224.82 42.2383 225.52 42.0859 226.285 42.0859C226.91 42.0859 227.473 42.1719 227.973 42.3438C228.473 42.5078 228.898 42.7734 229.25 43.1406C229.609 43.5078 229.883 43.9844 230.07 44.5703C230.258 45.1484 230.352 45.8555 230.352 46.6914V55H228.172V46.668C228.172 46.0039 228.074 45.4727 227.879 45.0742C227.684 44.668 227.398 44.375 227.023 44.1953C226.648 44.0078 226.188 43.9141 225.641 43.9141C225.102 43.9141 224.609 44.0273 224.164 44.2539C223.727 44.4805 223.348 44.793 223.027 45.1914C222.715 45.5898 222.469 46.0469 222.289 46.5625C222.117 47.0703 222.031 47.6094 222.031 48.1797ZM244.906 42.3203V43.9844H238.051V42.3203H244.906ZM240.371 39.2383H242.539V51.8594C242.539 52.2891 242.605 52.6133 242.738 52.832C242.871 53.0508 243.043 53.1953 243.254 53.2656C243.465 53.3359 243.691 53.3711 243.934 53.3711C244.113 53.3711 244.301 53.3555 244.496 53.3242C244.699 53.2852 244.852 53.2539 244.953 53.2305L244.965 55C244.793 55.0547 244.566 55.1055 244.285 55.1523C244.012 55.207 243.68 55.2344 243.289 55.2344C242.758 55.2344 242.27 55.1289 241.824 54.918C241.379 54.707 241.023 54.3555 240.758 53.8633C240.5 53.3633 240.371 52.6914 240.371 51.8477V39.2383ZM246.641 48.8008V48.5312C246.641 47.6172 246.773 46.7695 247.039 45.9883C247.305 45.1992 247.688 44.5156 248.188 43.9375C248.688 43.3516 249.293 42.8984 250.004 42.5781C250.715 42.25 251.512 42.0859 252.395 42.0859C253.285 42.0859 254.086 42.25 254.797 42.5781C255.516 42.8984 256.125 43.3516 256.625 43.9375C257.133 44.5156 257.52 45.1992 257.785 45.9883C258.051 46.7695 258.184 47.6172 258.184 48.5312V48.8008C258.184 49.7148 258.051 50.5625 257.785 51.3438C257.52 52.125 257.133 52.8086 256.625 53.3945C256.125 53.9727 255.52 54.4258 254.809 54.7539C254.105 55.0742 253.309 55.2344 252.418 55.2344C251.527 55.2344 250.727 55.0742 250.016 54.7539C249.305 54.4258 248.695 53.9727 248.188 53.3945C247.688 52.8086 247.305 52.125 247.039 51.3438C246.773 50.5625 246.641 49.7148 246.641 48.8008ZM248.809 48.5312V48.8008C248.809 49.4336 248.883 50.0312 249.031 50.5938C249.18 51.1484 249.402 51.6406 249.699 52.0703C250.004 52.5 250.383 52.8398 250.836 53.0898C251.289 53.332 251.816 53.4531 252.418 53.4531C253.012 53.4531 253.531 53.332 253.977 53.0898C254.43 52.8398 254.805 52.5 255.102 52.0703C255.398 51.6406 255.621 51.1484 255.77 50.5938C255.926 50.0312 256.004 49.4336 256.004 48.8008V48.5312C256.004 47.9062 255.926 47.3164 255.77 46.7617C255.621 46.1992 255.395 45.7031 255.09 45.2734C254.793 44.8359 254.418 44.4922 253.965 44.2422C253.52 43.9922 252.996 43.8672 252.395 43.8672C251.801 43.8672 251.277 43.9922 250.824 44.2422C250.379 44.4922 250.004 44.8359 249.699 45.2734C249.402 45.7031 249.18 46.1992 249.031 46.7617C248.883 47.3164 248.809 47.9062 248.809 48.5312ZM274.836 59.875V44.7578L275.023 42.3203H277.016V59.875H274.836ZM266.316 48.8008V48.5547C266.316 47.5859 266.43 46.707 266.656 45.918C266.883 45.1211 267.215 44.4375 267.652 43.8672C268.09 43.2969 268.617 42.8594 269.234 42.5547C269.859 42.2422 270.57 42.0859 271.367 42.0859C272.164 42.0859 272.863 42.2266 273.465 42.5078C274.074 42.7812 274.59 43.1836 275.012 43.7148C275.441 44.2383 275.781 44.8711 276.031 45.6133C276.281 46.3555 276.453 47.1953 276.547 48.1328V49.2109C276.461 50.1406 276.293 50.9766 276.043 51.7188C275.793 52.4609 275.453 53.0938 275.023 53.6172C274.602 54.1406 274.082 54.543 273.465 54.8242C272.855 55.0977 272.148 55.2344 271.344 55.2344C270.562 55.2344 269.859 55.0742 269.234 54.7539C268.617 54.4336 268.09 53.9844 267.652 53.4062C267.223 52.8281 266.891 52.1484 266.656 51.3672C266.43 50.5781 266.316 49.7227 266.316 48.8008ZM268.496 48.5547V48.8008C268.496 49.4336 268.562 50.0312 268.695 50.5938C268.828 51.1484 269.031 51.6406 269.305 52.0703C269.586 52.5 269.938 52.8398 270.359 53.0898C270.789 53.332 271.297 53.4531 271.883 53.4531C272.602 53.4531 273.199 53.2969 273.676 52.9844C274.16 52.6719 274.547 52.2617 274.836 51.7539C275.125 51.2383 275.348 50.6875 275.504 50.1016V47.2773C275.418 46.8477 275.281 46.4297 275.094 46.0234C274.914 45.6172 274.68 45.2539 274.391 44.9336C274.102 44.6055 273.75 44.3477 273.336 44.1602C272.93 43.9648 272.453 43.8672 271.906 43.8672C271.312 43.8672 270.801 43.9922 270.371 44.2422C269.941 44.4922 269.586 44.8359 269.305 45.2734C269.031 45.7031 268.828 46.1992 268.695 46.7617C268.562 47.3242 268.496 47.9219 268.496 48.5547ZM288.254 52.0703V42.3203H290.434V55H288.359L288.254 52.0703ZM288.664 49.3984L289.566 49.375C289.566 50.2188 289.477 51 289.297 51.7188C289.125 52.4297 288.844 53.0469 288.453 53.5703C288.062 54.0938 287.551 54.5039 286.918 54.8008C286.285 55.0898 285.516 55.2344 284.609 55.2344C283.992 55.2344 283.426 55.1445 282.91 54.9648C282.402 54.7852 281.965 54.5078 281.598 54.1328C281.23 53.7578 280.945 53.2695 280.742 52.668C280.547 52.0664 280.449 51.3438 280.449 50.5V42.3203H282.617V50.5234C282.617 51.0938 282.68 51.5664 282.805 51.9414C282.938 52.3086 283.113 52.6016 283.332 52.8203C283.559 53.0312 283.809 53.1797 284.082 53.2656C284.363 53.3516 284.652 53.3945 284.949 53.3945C285.871 53.3945 286.602 53.2188 287.141 52.8672C287.68 52.5078 288.066 52.0273 288.301 51.4258C288.543 50.8164 288.664 50.1406 288.664 49.3984ZM296.094 42.3203V55H293.914V42.3203H296.094ZM293.75 38.957C293.75 38.6055 293.855 38.3086 294.066 38.0664C294.285 37.8242 294.605 37.7031 295.027 37.7031C295.441 37.7031 295.758 37.8242 295.977 38.0664C296.203 38.3086 296.316 38.6055 296.316 38.957C296.316 39.293 296.203 39.582 295.977 39.8242C295.758 40.0586 295.441 40.1758 295.027 40.1758C294.605 40.1758 294.285 40.0586 294.066 39.8242C293.855 39.582 293.75 39.293 293.75 38.957ZM304.648 53.4531C305.164 53.4531 305.641 53.3477 306.078 53.1367C306.516 52.9258 306.875 52.6367 307.156 52.2695C307.438 51.8945 307.598 51.4688 307.637 50.9922H309.699C309.66 51.7422 309.406 52.4414 308.938 53.0898C308.477 53.7305 307.871 54.25 307.121 54.6484C306.371 55.0391 305.547 55.2344 304.648 55.2344C303.695 55.2344 302.863 55.0664 302.152 54.7305C301.449 54.3945 300.863 53.9336 300.395 53.3477C299.934 52.7617 299.586 52.0898 299.352 51.332C299.125 50.5664 299.012 49.7578 299.012 48.9062V48.4141C299.012 47.5625 299.125 46.7578 299.352 46C299.586 45.2344 299.934 44.5586 300.395 43.9727C300.863 43.3867 301.449 42.9258 302.152 42.5898C302.863 42.2539 303.695 42.0859 304.648 42.0859C305.641 42.0859 306.508 42.2891 307.25 42.6953C307.992 43.0938 308.574 43.6406 308.996 44.3359C309.426 45.0234 309.66 45.8047 309.699 46.6797H307.637C307.598 46.1562 307.449 45.6836 307.191 45.2617C306.941 44.8398 306.598 44.5039 306.16 44.2539C305.73 43.9961 305.227 43.8672 304.648 43.8672C303.984 43.8672 303.426 44 302.973 44.2656C302.527 44.5234 302.172 44.875 301.906 45.3203C301.648 45.7578 301.461 46.2461 301.344 46.7852C301.234 47.3164 301.18 47.8594 301.18 48.4141V48.9062C301.18 49.4609 301.234 50.0078 301.344 50.5469C301.453 51.0859 301.637 51.5742 301.895 52.0117C302.16 52.4492 302.516 52.8008 302.961 53.0664C303.414 53.3242 303.977 53.4531 304.648 53.4531ZM314.316 37V55H312.137V37H314.316ZM322.062 42.3203L316.531 48.2383L313.438 51.4492L313.262 49.1406L315.477 46.4922L319.414 42.3203H322.062ZM320.082 55L315.559 48.9531L316.684 47.0195L322.637 55H320.082ZM326.656 37V55H324.477V37H326.656ZM333.699 53.6875L337.227 42.3203H339.547L334.461 56.957C334.344 57.2695 334.188 57.6055 333.992 57.9648C333.805 58.332 333.562 58.6797 333.266 59.0078C332.969 59.3359 332.609 59.6016 332.188 59.8047C331.773 60.0156 331.277 60.1211 330.699 60.1211C330.527 60.1211 330.309 60.0977 330.043 60.0508C329.777 60.0039 329.59 59.9648 329.48 59.9336L329.469 58.1758C329.531 58.1836 329.629 58.1914 329.762 58.1992C329.902 58.2148 330 58.2227 330.055 58.2227C330.547 58.2227 330.965 58.1562 331.309 58.0234C331.652 57.8984 331.941 57.6836 332.176 57.3789C332.418 57.082 332.625 56.6719 332.797 56.1484L333.699 53.6875ZM331.109 42.3203L334.402 52.1641L334.965 54.4492L333.406 55.2461L328.742 42.3203H331.109ZM352.531 53.4531C353.047 53.4531 353.523 53.3477 353.961 53.1367C354.398 52.9258 354.758 52.6367 355.039 52.2695C355.32 51.8945 355.48 51.4688 355.52 50.9922H357.582C357.543 51.7422 357.289 52.4414 356.82 53.0898C356.359 53.7305 355.754 54.25 355.004 54.6484C354.254 55.0391 353.43 55.2344 352.531 55.2344C351.578 55.2344 350.746 55.0664 350.035 54.7305C349.332 54.3945 348.746 53.9336 348.277 53.3477C347.816 52.7617 347.469 52.0898 347.234 51.332C347.008 50.5664 346.895 49.7578 346.895 48.9062V48.4141C346.895 47.5625 347.008 46.7578 347.234 46C347.469 45.2344 347.816 44.5586 348.277 43.9727C348.746 43.3867 349.332 42.9258 350.035 42.5898C350.746 42.2539 351.578 42.0859 352.531 42.0859C353.523 42.0859 354.391 42.2891 355.133 42.6953C355.875 43.0938 356.457 43.6406 356.879 44.3359C357.309 45.0234 357.543 45.8047 357.582 46.6797H355.52C355.48 46.1562 355.332 45.6836 355.074 45.2617C354.824 44.8398 354.48 44.5039 354.043 44.2539C353.613 43.9961 353.109 43.8672 352.531 43.8672C351.867 43.8672 351.309 44 350.855 44.2656C350.41 44.5234 350.055 44.875 349.789 45.3203C349.531 45.7578 349.344 46.2461 349.227 46.7852C349.117 47.3164 349.062 47.8594 349.062 48.4141V48.9062C349.062 49.4609 349.117 50.0078 349.227 50.5469C349.336 51.0859 349.52 51.5742 349.777 52.0117C350.043 52.4492 350.398 52.8008 350.844 53.0664C351.297 53.3242 351.859 53.4531 352.531 53.4531ZM362.188 44.3125V55H360.02V42.3203H362.129L362.188 44.3125ZM366.148 42.25L366.137 44.2656C365.957 44.2266 365.785 44.2031 365.621 44.1953C365.465 44.1797 365.285 44.1719 365.082 44.1719C364.582 44.1719 364.141 44.25 363.758 44.4062C363.375 44.5625 363.051 44.7812 362.785 45.0625C362.52 45.3438 362.309 45.6797 362.152 46.0703C362.004 46.4531 361.906 46.875 361.859 47.3359L361.25 47.6875C361.25 46.9219 361.324 46.2031 361.473 45.5312C361.629 44.8594 361.867 44.2656 362.188 43.75C362.508 43.2266 362.914 42.8203 363.406 42.5312C363.906 42.2344 364.5 42.0859 365.188 42.0859C365.344 42.0859 365.523 42.1055 365.727 42.1445C365.93 42.1758 366.07 42.2109 366.148 42.25ZM373.18 55.2344C372.297 55.2344 371.496 55.0859 370.777 54.7891C370.066 54.4844 369.453 54.0586 368.938 53.5117C368.43 52.9648 368.039 52.3164 367.766 51.5664C367.492 50.8164 367.355 49.9961 367.355 49.1055V48.6133C367.355 47.582 367.508 46.6641 367.812 45.8594C368.117 45.0469 368.531 44.3594 369.055 43.7969C369.578 43.2344 370.172 42.8086 370.836 42.5195C371.5 42.2305 372.188 42.0859 372.898 42.0859C373.805 42.0859 374.586 42.2422 375.242 42.5547C375.906 42.8672 376.449 43.3047 376.871 43.8672C377.293 44.4219 377.605 45.0781 377.809 45.8359C378.012 46.5859 378.113 47.4062 378.113 48.2969V49.2695H368.645V47.5H375.945V47.3359C375.914 46.7734 375.797 46.2266 375.594 45.6953C375.398 45.1641 375.086 44.7266 374.656 44.3828C374.227 44.0391 373.641 43.8672 372.898 43.8672C372.406 43.8672 371.953 43.9727 371.539 44.1836C371.125 44.3867 370.77 44.6914 370.473 45.0977C370.176 45.5039 369.945 46 369.781 46.5859C369.617 47.1719 369.535 47.8477 369.535 48.6133V49.1055C369.535 49.707 369.617 50.2734 369.781 50.8047C369.953 51.3281 370.199 51.7891 370.52 52.1875C370.848 52.5859 371.242 52.8984 371.703 53.125C372.172 53.3516 372.703 53.4648 373.297 53.4648C374.062 53.4648 374.711 53.3086 375.242 52.9961C375.773 52.6836 376.238 52.2656 376.637 51.7422L377.949 52.7852C377.676 53.1992 377.328 53.5938 376.906 53.9688C376.484 54.3438 375.965 54.6484 375.348 54.8828C374.738 55.1172 374.016 55.2344 373.18 55.2344ZM388.121 52.832V46.3047C388.121 45.8047 388.02 45.3711 387.816 45.0039C387.621 44.6289 387.324 44.3398 386.926 44.1367C386.527 43.9336 386.035 43.832 385.449 43.832C384.902 43.832 384.422 43.9258 384.008 44.1133C383.602 44.3008 383.281 44.5469 383.047 44.8516C382.82 45.1562 382.707 45.4844 382.707 45.8359H380.539C380.539 45.3828 380.656 44.9336 380.891 44.4883C381.125 44.043 381.461 43.6406 381.898 43.2812C382.344 42.9141 382.875 42.625 383.492 42.4141C384.117 42.1953 384.812 42.0859 385.578 42.0859C386.5 42.0859 387.312 42.2422 388.016 42.5547C388.727 42.8672 389.281 43.3398 389.68 43.9727C390.086 44.5977 390.289 45.3828 390.289 46.3281V52.2344C390.289 52.6562 390.324 53.1055 390.395 53.582C390.473 54.0586 390.586 54.4688 390.734 54.8125V55H388.473C388.363 54.75 388.277 54.418 388.215 54.0039C388.152 53.582 388.121 53.1914 388.121 52.832ZM388.496 47.3125L388.52 48.8359H386.328C385.711 48.8359 385.16 48.8867 384.676 48.9883C384.191 49.082 383.785 49.2266 383.457 49.4219C383.129 49.6172 382.879 49.8633 382.707 50.1602C382.535 50.4492 382.449 50.7891 382.449 51.1797C382.449 51.5781 382.539 51.9414 382.719 52.2695C382.898 52.5977 383.168 52.8594 383.527 53.0547C383.895 53.2422 384.344 53.3359 384.875 53.3359C385.539 53.3359 386.125 53.1953 386.633 52.9141C387.141 52.6328 387.543 52.2891 387.84 51.8828C388.145 51.4766 388.309 51.082 388.332 50.6992L389.258 51.7422C389.203 52.0703 389.055 52.4336 388.812 52.832C388.57 53.2305 388.246 53.6133 387.84 53.9805C387.441 54.3398 386.965 54.6406 386.41 54.8828C385.863 55.1172 385.246 55.2344 384.559 55.2344C383.699 55.2344 382.945 55.0664 382.297 54.7305C381.656 54.3945 381.156 53.9453 380.797 53.3828C380.445 52.8125 380.27 52.1758 380.27 51.4727C380.27 50.793 380.402 50.1953 380.668 49.6797C380.934 49.1562 381.316 48.7227 381.816 48.3789C382.316 48.0273 382.918 47.7617 383.621 47.582C384.324 47.4023 385.109 47.3125 385.977 47.3125H388.496ZM399.008 42.3203V43.9844H392.152V42.3203H399.008ZM394.473 39.2383H396.641V51.8594C396.641 52.2891 396.707 52.6133 396.84 52.832C396.973 53.0508 397.145 53.1953 397.355 53.2656C397.566 53.3359 397.793 53.3711 398.035 53.3711C398.215 53.3711 398.402 53.3555 398.598 53.3242C398.801 53.2852 398.953 53.2539 399.055 53.2305L399.066 55C398.895 55.0547 398.668 55.1055 398.387 55.1523C398.113 55.207 397.781 55.2344 397.391 55.2344C396.859 55.2344 396.371 55.1289 395.926 54.918C395.48 54.707 395.125 54.3555 394.859 53.8633C394.602 53.3633 394.473 52.6914 394.473 51.8477V39.2383ZM406.812 55.2344C405.93 55.2344 405.129 55.0859 404.41 54.7891C403.699 54.4844 403.086 54.0586 402.57 53.5117C402.062 52.9648 401.672 52.3164 401.398 51.5664C401.125 50.8164 400.988 49.9961 400.988 49.1055V48.6133C400.988 47.582 401.141 46.6641 401.445 45.8594C401.75 45.0469 402.164 44.3594 402.688 43.7969C403.211 43.2344 403.805 42.8086 404.469 42.5195C405.133 42.2305 405.82 42.0859 406.531 42.0859C407.438 42.0859 408.219 42.2422 408.875 42.5547C409.539 42.8672 410.082 43.3047 410.504 43.8672C410.926 44.4219 411.238 45.0781 411.441 45.8359C411.645 46.5859 411.746 47.4062 411.746 48.2969V49.2695H402.277V47.5H409.578V47.3359C409.547 46.7734 409.43 46.2266 409.227 45.6953C409.031 45.1641 408.719 44.7266 408.289 44.3828C407.859 44.0391 407.273 43.8672 406.531 43.8672C406.039 43.8672 405.586 43.9727 405.172 44.1836C404.758 44.3867 404.402 44.6914 404.105 45.0977C403.809 45.5039 403.578 46 403.414 46.5859C403.25 47.1719 403.168 47.8477 403.168 48.6133V49.1055C403.168 49.707 403.25 50.2734 403.414 50.8047C403.586 51.3281 403.832 51.7891 404.152 52.1875C404.48 52.5859 404.875 52.8984 405.336 53.125C405.805 53.3516 406.336 53.4648 406.93 53.4648C407.695 53.4648 408.344 53.3086 408.875 52.9961C409.406 52.6836 409.871 52.2656 410.27 51.7422L411.582 52.7852C411.309 53.1992 410.961 53.5938 410.539 53.9688C410.117 54.3438 409.598 54.6484 408.98 54.8828C408.371 55.1172 407.648 55.2344 406.812 55.2344ZM427.707 52.832V46.3047C427.707 45.8047 427.605 45.3711 427.402 45.0039C427.207 44.6289 426.91 44.3398 426.512 44.1367C426.113 43.9336 425.621 43.832 425.035 43.832C424.488 43.832 424.008 43.9258 423.594 44.1133C423.188 44.3008 422.867 44.5469 422.633 44.8516C422.406 45.1562 422.293 45.4844 422.293 45.8359H420.125C420.125 45.3828 420.242 44.9336 420.477 44.4883C420.711 44.043 421.047 43.6406 421.484 43.2812C421.93 42.9141 422.461 42.625 423.078 42.4141C423.703 42.1953 424.398 42.0859 425.164 42.0859C426.086 42.0859 426.898 42.2422 427.602 42.5547C428.312 42.8672 428.867 43.3398 429.266 43.9727C429.672 44.5977 429.875 45.3828 429.875 46.3281V52.2344C429.875 52.6562 429.91 53.1055 429.98 53.582C430.059 54.0586 430.172 54.4688 430.32 54.8125V55H428.059C427.949 54.75 427.863 54.418 427.801 54.0039C427.738 53.582 427.707 53.1914 427.707 52.832ZM428.082 47.3125L428.105 48.8359H425.914C425.297 48.8359 424.746 48.8867 424.262 48.9883C423.777 49.082 423.371 49.2266 423.043 49.4219C422.715 49.6172 422.465 49.8633 422.293 50.1602C422.121 50.4492 422.035 50.7891 422.035 51.1797C422.035 51.5781 422.125 51.9414 422.305 52.2695C422.484 52.5977 422.754 52.8594 423.113 53.0547C423.48 53.2422 423.93 53.3359 424.461 53.3359C425.125 53.3359 425.711 53.1953 426.219 52.9141C426.727 52.6328 427.129 52.2891 427.426 51.8828C427.73 51.4766 427.895 51.082 427.918 50.6992L428.844 51.7422C428.789 52.0703 428.641 52.4336 428.398 52.832C428.156 53.2305 427.832 53.6133 427.426 53.9805C427.027 54.3398 426.551 54.6406 425.996 54.8828C425.449 55.1172 424.832 55.2344 424.145 55.2344C423.285 55.2344 422.531 55.0664 421.883 54.7305C421.242 54.3945 420.742 53.9453 420.383 53.3828C420.031 52.8125 419.855 52.1758 419.855 51.4727C419.855 50.793 419.988 50.1953 420.254 49.6797C420.52 49.1562 420.902 48.7227 421.402 48.3789C421.902 48.0273 422.504 47.7617 423.207 47.582C423.91 47.4023 424.695 47.3125 425.562 47.3125H428.082ZM435.453 45.0273V55H433.285V42.3203H435.336L435.453 45.0273ZM434.938 48.1797L434.035 48.1445C434.043 47.2773 434.172 46.4766 434.422 45.7422C434.672 45 435.023 44.3555 435.477 43.8086C435.93 43.2617 436.469 42.8398 437.094 42.543C437.727 42.2383 438.426 42.0859 439.191 42.0859C439.816 42.0859 440.379 42.1719 440.879 42.3438C441.379 42.5078 441.805 42.7734 442.156 43.1406C442.516 43.5078 442.789 43.9844 442.977 44.5703C443.164 45.1484 443.258 45.8555 443.258 46.6914V55H441.078V46.668C441.078 46.0039 440.98 45.4727 440.785 45.0742C440.59 44.668 440.305 44.375 439.93 44.1953C439.555 44.0078 439.094 43.9141 438.547 43.9141C438.008 43.9141 437.516 44.0273 437.07 44.2539C436.633 44.4805 436.254 44.793 435.934 45.1914C435.621 45.5898 435.375 46.0469 435.195 46.5625C435.023 47.0703 434.938 47.6094 434.938 48.1797ZM459.98 52.832V46.3047C459.98 45.8047 459.879 45.3711 459.676 45.0039C459.48 44.6289 459.184 44.3398 458.785 44.1367C458.387 43.9336 457.895 43.832 457.309 43.832C456.762 43.832 456.281 43.9258 455.867 44.1133C455.461 44.3008 455.141 44.5469 454.906 44.8516C454.68 45.1562 454.566 45.4844 454.566 45.8359H452.398C452.398 45.3828 452.516 44.9336 452.75 44.4883C452.984 44.043 453.32 43.6406 453.758 43.2812C454.203 42.9141 454.734 42.625 455.352 42.4141C455.977 42.1953 456.672 42.0859 457.438 42.0859C458.359 42.0859 459.172 42.2422 459.875 42.5547C460.586 42.8672 461.141 43.3398 461.539 43.9727C461.945 44.5977 462.148 45.3828 462.148 46.3281V52.2344C462.148 52.6562 462.184 53.1055 462.254 53.582C462.332 54.0586 462.445 54.4688 462.594 54.8125V55H460.332C460.223 54.75 460.137 54.418 460.074 54.0039C460.012 53.582 459.98 53.1914 459.98 52.832ZM460.355 47.3125L460.379 48.8359H458.188C457.57 48.8359 457.02 48.8867 456.535 48.9883C456.051 49.082 455.645 49.2266 455.316 49.4219C454.988 49.6172 454.738 49.8633 454.566 50.1602C454.395 50.4492 454.309 50.7891 454.309 51.1797C454.309 51.5781 454.398 51.9414 454.578 52.2695C454.758 52.5977 455.027 52.8594 455.387 53.0547C455.754 53.2422 456.203 53.3359 456.734 53.3359C457.398 53.3359 457.984 53.1953 458.492 52.9141C459 52.6328 459.402 52.2891 459.699 51.8828C460.004 51.4766 460.168 51.082 460.191 50.6992L461.117 51.7422C461.062 52.0703 460.914 52.4336 460.672 52.832C460.43 53.2305 460.105 53.6133 459.699 53.9805C459.301 54.3398 458.824 54.6406 458.27 54.8828C457.723 55.1172 457.105 55.2344 456.418 55.2344C455.559 55.2344 454.805 55.0664 454.156 54.7305C453.516 54.3945 453.016 53.9453 452.656 53.3828C452.305 52.8125 452.129 52.1758 452.129 51.4727C452.129 50.793 452.262 50.1953 452.527 49.6797C452.793 49.1562 453.176 48.7227 453.676 48.3789C454.176 48.0273 454.777 47.7617 455.48 47.582C456.184 47.4023 456.969 47.3125 457.836 47.3125H460.355ZM467.914 37V55H465.734V37H467.914ZM473.75 42.3203V55H471.57V42.3203H473.75ZM471.406 38.957C471.406 38.6055 471.512 38.3086 471.723 38.0664C471.941 37.8242 472.262 37.7031 472.684 37.7031C473.098 37.7031 473.414 37.8242 473.633 38.0664C473.859 38.3086 473.973 38.6055 473.973 38.957C473.973 39.293 473.859 39.582 473.633 39.8242C473.414 40.0586 473.098 40.1758 472.684 40.1758C472.262 40.1758 471.941 40.0586 471.723 39.8242C471.512 39.582 471.406 39.293 471.406 38.957ZM484.707 52.832V46.3047C484.707 45.8047 484.605 45.3711 484.402 45.0039C484.207 44.6289 483.91 44.3398 483.512 44.1367C483.113 43.9336 482.621 43.832 482.035 43.832C481.488 43.832 481.008 43.9258 480.594 44.1133C480.188 44.3008 479.867 44.5469 479.633 44.8516C479.406 45.1562 479.293 45.4844 479.293 45.8359H477.125C477.125 45.3828 477.242 44.9336 477.477 44.4883C477.711 44.043 478.047 43.6406 478.484 43.2812C478.93 42.9141 479.461 42.625 480.078 42.4141C480.703 42.1953 481.398 42.0859 482.164 42.0859C483.086 42.0859 483.898 42.2422 484.602 42.5547C485.312 42.8672 485.867 43.3398 486.266 43.9727C486.672 44.5977 486.875 45.3828 486.875 46.3281V52.2344C486.875 52.6562 486.91 53.1055 486.98 53.582C487.059 54.0586 487.172 54.4688 487.32 54.8125V55H485.059C484.949 54.75 484.863 54.418 484.801 54.0039C484.738 53.582 484.707 53.1914 484.707 52.832ZM485.082 47.3125L485.105 48.8359H482.914C482.297 48.8359 481.746 48.8867 481.262 48.9883C480.777 49.082 480.371 49.2266 480.043 49.4219C479.715 49.6172 479.465 49.8633 479.293 50.1602C479.121 50.4492 479.035 50.7891 479.035 51.1797C479.035 51.5781 479.125 51.9414 479.305 52.2695C479.484 52.5977 479.754 52.8594 480.113 53.0547C480.48 53.2422 480.93 53.3359 481.461 53.3359C482.125 53.3359 482.711 53.1953 483.219 52.9141C483.727 52.6328 484.129 52.2891 484.426 51.8828C484.73 51.4766 484.895 51.082 484.918 50.6992L485.844 51.7422C485.789 52.0703 485.641 52.4336 485.398 52.832C485.156 53.2305 484.832 53.6133 484.426 53.9805C484.027 54.3398 483.551 54.6406 482.996 54.8828C482.449 55.1172 481.832 55.2344 481.145 55.2344C480.285 55.2344 479.531 55.0664 478.883 54.7305C478.242 54.3945 477.742 53.9453 477.383 53.3828C477.031 52.8125 476.855 52.1758 476.855 51.4727C476.855 50.793 476.988 50.1953 477.254 49.6797C477.52 49.1562 477.902 48.7227 478.402 48.3789C478.902 48.0273 479.504 47.7617 480.207 47.582C480.91 47.4023 481.695 47.3125 482.562 47.3125H485.082ZM497.668 51.6367C497.668 51.3242 497.598 51.0352 497.457 50.7695C497.324 50.4961 497.047 50.25 496.625 50.0312C496.211 49.8047 495.586 49.6094 494.75 49.4453C494.047 49.2969 493.41 49.1211 492.84 48.918C492.277 48.7148 491.797 48.4688 491.398 48.1797C491.008 47.8906 490.707 47.5508 490.496 47.1602C490.285 46.7695 490.18 46.3125 490.18 45.7891C490.18 45.2891 490.289 44.8164 490.508 44.3711C490.734 43.9258 491.051 43.5312 491.457 43.1875C491.871 42.8438 492.367 42.5742 492.945 42.3789C493.523 42.1836 494.168 42.0859 494.879 42.0859C495.895 42.0859 496.762 42.2656 497.48 42.625C498.199 42.9844 498.75 43.4648 499.133 44.0664C499.516 44.6602 499.707 45.3203 499.707 46.0469H497.539C497.539 45.6953 497.434 45.3555 497.223 45.0273C497.02 44.6914 496.719 44.4141 496.32 44.1953C495.93 43.9766 495.449 43.8672 494.879 43.8672C494.277 43.8672 493.789 43.9609 493.414 44.1484C493.047 44.3281 492.777 44.5586 492.605 44.8398C492.441 45.1211 492.359 45.418 492.359 45.7305C492.359 45.9648 492.398 46.1758 492.477 46.3633C492.562 46.543 492.711 46.7109 492.922 46.8672C493.133 47.0156 493.43 47.1562 493.812 47.2891C494.195 47.4219 494.684 47.5547 495.277 47.6875C496.316 47.9219 497.172 48.2031 497.844 48.5312C498.516 48.8594 499.016 49.2617 499.344 49.7383C499.672 50.2148 499.836 50.793 499.836 51.4727C499.836 52.0273 499.719 52.5352 499.484 52.9961C499.258 53.457 498.926 53.8555 498.488 54.1914C498.059 54.5195 497.543 54.7773 496.941 54.9648C496.348 55.1445 495.68 55.2344 494.938 55.2344C493.82 55.2344 492.875 55.0352 492.102 54.6367C491.328 54.2383 490.742 53.7227 490.344 53.0898C489.945 52.457 489.746 51.7891 489.746 51.0859H491.926C491.957 51.6797 492.129 52.1523 492.441 52.5039C492.754 52.8477 493.137 53.0938 493.59 53.2422C494.043 53.3828 494.492 53.4531 494.938 53.4531C495.531 53.4531 496.027 53.375 496.426 53.2188C496.832 53.0625 497.141 52.8477 497.352 52.5742C497.562 52.3008 497.668 51.9883 497.668 51.6367Z" fill="#AE0721"/>
</svg>
