<svg width="12" height="16" viewBox="0 0 317 400" fill="none" xmlns="http://www.w3.org/2000/svg">
<g clip-path="url(#clip0_4917_2728)">
<path d="M-7.51553e-05 295.38V399.38H72.9999V299.89C72.9999 290.21 76.8455 280.925 83.6906 274.08C90.5357 267.235 99.8195 263.39 109.5 263.39H184.35C201.643 263.39 218.767 259.984 234.744 253.365C250.721 246.747 265.238 237.047 277.466 224.818C289.693 212.589 299.393 198.072 306.009 182.095C312.626 166.118 316.031 148.993 316.03 131.7C316.033 114.406 312.629 97.2805 306.012 81.302C299.396 65.3235 289.697 50.8052 277.469 38.5754C265.241 26.3457 250.724 16.6444 234.747 10.0256C218.769 3.40684 201.644 -0.00024434 184.35 -0.000244141H-7.51553e-05V130H72.9999V68.7H179.41C195.934 68.7 211.781 75.2633 223.466 86.9465C235.151 98.6298 241.717 114.476 241.72 131C241.72 147.525 235.155 163.374 223.47 175.06C211.785 186.745 195.936 193.31 179.41 193.31H102.04C88.6359 193.305 75.3623 195.942 62.978 201.07C50.5936 206.198 39.3412 213.716 29.8644 223.196C20.3877 232.675 12.8723 243.93 7.74797 256.316C2.62361 268.702 -0.00927507 281.976 -7.51553e-05 295.38Z" fill="url(#paint0_radial_4917_2728)"/>
<path d="M109.48 263.38C95.1024 263.379 80.8655 266.21 67.5822 271.711C54.2989 277.213 42.2296 285.277 32.0631 295.443C21.8967 305.61 13.8324 317.679 8.33096 330.962C2.82954 344.245 -0.00141216 358.483 -9.87253e-05 372.86V399.37H72.9999V299.88C72.9999 290.203 76.8427 280.922 83.6835 274.077C90.5242 267.233 99.8029 263.385 109.48 263.38Z" fill="url(#paint1_linear_4917_2728)"/>
</g>
<defs>
<radialGradient id="paint0_radial_4917_2728" cx="0" cy="0" r="1" gradientUnits="userSpaceOnUse" gradientTransform="translate(317.15 -55.4503) scale(401.97 401.97)">
<stop stop-color="#A995FF"/>
<stop offset="1" stop-color="#6652F5"/>
</radialGradient>
<linearGradient id="paint1_linear_4917_2728" x1="54.7399" y1="379.7" x2="54.7399" y2="226.88" gradientUnits="userSpaceOnUse">
<stop stop-color="#6D4BFD"/>
<stop offset="1" stop-color="#1C0554"/>
</linearGradient>
<clipPath id="clip0_4917_2728">
<rect width="316.02" height="399.37" fill="white"/>
</clipPath>
</defs>
</svg>
