<?xml version='1.0' encoding='utf-8'?>
<svg xmlns="http://www.w3.org/2000/svg" width="91.44mm" height="91.44mm" version="1.1" style="shape-rendering:geometricPrecision; text-rendering:geometricPrecision; image-rendering:optimizeQuality; fill-rule:evenodd; clip-rule:evenodd" viewBox="0 0 9144 9144"> <defs> <style type="text/css">  .fil0 {fill:#F0F0F0} .fil1 {fill:#011627;fill-rule:nonzero}  </style> </defs> <g id="Layer_x0020_1"> <metadata id="CorelCorpID_0Corel-Layer"/> <g id="_2744590914352"> <polygon class="fil0" points="0,0 9144,0 9144,9144 0,9144 "/> <path class="fil1" d="M3694 6519l1756 0 0 -1091c0,-242 -99,-461 -258,-620 -159,-159 -379,-258 -620,-258 -241,0 -461,98 -620,258 -159,159 -258,378 -258,620l0 1091zm1840 170l-1924 0c-47,0 -85,-38 -85,-85l0 -1176c0,-289 118,-550 307,-740 190,-190 452,-308 740,-308 288,0 550,118 740,308 189,190 307,451 307,740l0 1176c0,47 -38,85 -85,85z"/> <path class="fil1" d="M4572 2455c490,0 887,397 887,887 0,245 -99,467 -260,627 -160,161 -382,260 -627,260 -490,0 -887,-397 -887,-887 0,-245 100,-466 260,-627 160,-160 382,-260 627,-260zm717 887c0,-396 -321,-717 -717,-717 -198,0 -377,80 -507,210 -130,130 -210,309 -210,507 0,396 321,718 717,718 198,0 378,-81 507,-210 130,-130 210,-310 210,-508z"/> </g> </g> </svg>