<?xml version="1.0" encoding="utf-8"?>
<!-- Generator: Adobe Illustrator 23.0.0, SVG Export Plug-In . SVG Version: 6.00 Build 0)  -->
<svg version="1.1" id="Layer_1" xmlns="http://www.w3.org/2000/svg" xmlns:xlink="http://www.w3.org/1999/xlink" x="0px" y="0px"
	 viewBox="0 0 640 480" style="enable-background:new 0 0 640 480;" xml:space="preserve">
<style type="text/css">
	.st0{fill:#BE1E2D;}
	.st1{fill:url(#SVGID_1_);}
</style>
<g>
	<path class="st0" d="M351.3,365.16h-17.5v-33.72h3.95v30.15h13.55V365.16z"/>
	<path class="st0" d="M366.02,365.73c-3.56,0-6.4-1.12-8.52-3.37c-2.12-2.25-3.19-5.23-3.19-8.95c0-4.05,1.11-7.2,3.32-9.48
		c2.21-2.27,5.2-3.41,8.96-3.41c3.59,0,6.39,1.11,8.41,3.32c2.01,2.21,3.02,5.28,3.02,9.2c0,3.84-1.09,6.92-3.26,9.23
		C372.58,364.57,369.67,365.73,366.02,365.73z M366.3,343.76c-2.48,0-4.44,0.84-5.88,2.53c-1.44,1.69-2.16,4.01-2.16,6.97
		c0,2.85,0.73,5.1,2.19,6.75c1.46,1.65,3.41,2.47,5.86,2.47c2.49,0,4.41-0.81,5.75-2.42c1.34-1.61,2.01-3.91,2.01-6.89
		c0-3.01-0.67-5.33-2.01-6.96C370.71,344.58,368.79,343.76,366.3,343.76z"/>
	<path class="st0" d="M404.73,363.24c0,8.84-4.23,13.26-12.7,13.26c-2.98,0-5.58-0.56-7.81-1.69v-3.86c2.71,1.51,5.3,2.26,7.76,2.26
		c5.93,0,8.89-3.15,8.89-9.45v-2.63h-0.09c-1.83,3.07-4.59,4.61-8.28,4.61c-2.99,0-5.41-1.07-7.23-3.21
		c-1.83-2.14-2.74-5.01-2.74-8.62c0-4.09,0.98-7.35,2.95-9.76c1.97-2.41,4.66-3.62,8.08-3.62c3.25,0,5.65,1.3,7.22,3.9h0.09v-3.34
		h3.86V363.24z M400.87,354.28v-3.55c0-1.91-0.65-3.55-1.94-4.92c-1.29-1.36-2.9-2.05-4.83-2.05c-2.38,0-4.25,0.87-5.6,2.6
		c-1.35,1.73-2.02,4.16-2.02,7.28c0,2.68,0.65,4.83,1.94,6.43c1.29,1.61,3.01,2.41,5.14,2.41c2.16,0,3.92-0.77,5.28-2.3
		C400.19,358.64,400.87,356.68,400.87,354.28z"/>
	<path class="st0" d="M414.51,334.97c-0.69,0-1.28-0.24-1.76-0.71c-0.49-0.47-0.73-1.07-0.73-1.79c0-0.72,0.24-1.32,0.73-1.8
		c0.49-0.48,1.07-0.72,1.76-0.72c0.71,0,1.31,0.24,1.8,0.72c0.49,0.48,0.74,1.08,0.74,1.8c0,0.69-0.25,1.28-0.74,1.76
		C415.81,334.73,415.21,334.97,414.51,334.97z M416.39,365.16h-3.86v-24.08h3.86V365.16z"/>
	<path class="st0" d="M444.19,365.16h-3.86v-13.73c0-5.11-1.87-7.67-5.6-7.67c-1.93,0-3.52,0.73-4.79,2.18
		c-1.26,1.45-1.89,3.28-1.89,5.49v13.73h-3.86v-24.08h3.86v4h0.09c1.82-3.04,4.45-4.56,7.9-4.56c2.63,0,4.65,0.85,6.04,2.55
		c1.39,1.7,2.09,4.16,2.09,7.37V365.16z"/>
	<linearGradient id="SVGID_1_" gradientUnits="userSpaceOnUse" x1="187.3735" y1="269.6172" x2="445.5234" y2="269.6172">
		<stop  offset="0" style="stop-color:#ED2E7C"/>
		<stop  offset="1" style="stop-color:#A8288F"/>
	</linearGradient>
	<path class="st1" d="M188.32,363.8v-4.66c0.53,0.47,1.17,0.89,1.92,1.27c0.74,0.38,1.53,0.69,2.35,0.95
		c0.82,0.26,1.65,0.46,2.48,0.6c0.83,0.14,1.6,0.21,2.3,0.21c2.43,0,4.24-0.45,5.44-1.35c1.2-0.9,1.8-2.2,1.8-3.89
		c0-0.91-0.2-1.7-0.6-2.38c-0.4-0.67-0.95-1.29-1.66-1.85c-0.71-0.56-1.54-1.09-2.5-1.6c-0.96-0.51-2-1.05-3.12-1.61
		c-1.18-0.6-2.27-1.2-3.29-1.81c-1.02-0.61-1.9-1.29-2.66-2.02c-0.75-0.74-1.34-1.57-1.78-2.5c-0.43-0.93-0.65-2.03-0.65-3.28
		c0-1.54,0.34-2.87,1.01-4.01c0.67-1.14,1.56-2.07,2.66-2.81c1.1-0.74,2.35-1.29,3.75-1.65c1.4-0.36,2.83-0.54,4.29-0.54
		c3.32,0,5.75,0.4,7.27,1.2v4.44c-1.99-1.38-4.55-2.07-7.67-2.07c-0.86,0-1.72,0.09-2.59,0.27c-0.86,0.18-1.63,0.47-2.3,0.88
		c-0.67,0.41-1.22,0.93-1.65,1.58c-0.42,0.64-0.63,1.43-0.63,2.35c0,0.86,0.16,1.61,0.48,2.23c0.32,0.63,0.8,1.2,1.42,1.72
		c0.63,0.52,1.39,1.02,2.29,1.51c0.9,0.49,1.94,1.02,3.12,1.6c1.21,0.6,2.35,1.22,3.43,1.88c1.08,0.66,2.03,1.39,2.85,2.19
		c0.81,0.8,1.46,1.69,1.94,2.66c0.48,0.97,0.72,2.09,0.72,3.34c0,1.66-0.33,3.07-0.98,4.22c-0.65,1.15-1.53,2.09-2.63,2.81
		c-1.11,0.72-2.38,1.24-3.82,1.56s-2.96,0.48-4.56,0.48c-0.53,0-1.19-0.04-1.98-0.13c-0.78-0.09-1.58-0.21-2.4-0.38
		c-0.82-0.16-1.59-0.37-2.32-0.61C189.34,364.37,188.76,364.1,188.32,363.8z M216.94,334.97c-0.69,0-1.28-0.24-1.76-0.71
		c-0.49-0.47-0.73-1.07-0.73-1.79c0-0.72,0.24-1.32,0.73-1.8c0.49-0.48,1.07-0.72,1.76-0.72c0.71,0,1.31,0.24,1.8,0.72
		c0.49,0.48,0.74,1.08,0.74,1.8c0,0.69-0.25,1.28-0.74,1.76C218.25,334.73,217.65,334.97,216.94,334.97z M218.82,365.16h-3.86
		v-24.08h3.86V365.16z M260.82,365.16h-3.86v-13.83c0-2.67-0.41-4.59-1.23-5.79c-0.82-1.19-2.21-1.79-4.15-1.79
		c-1.65,0-3.05,0.75-4.2,2.26c-1.15,1.51-1.73,3.31-1.73,5.41v13.73h-3.86v-14.3c0-4.73-1.83-7.1-5.48-7.1
		c-1.69,0-3.09,0.71-4.19,2.13c-1.1,1.42-1.65,3.27-1.65,5.54v13.73h-3.86v-24.08h3.86v3.81h0.09c1.71-2.92,4.2-4.37,7.48-4.37
		c1.65,0,3.08,0.46,4.3,1.38c1.22,0.92,2.06,2.12,2.52,3.61c1.79-3.32,4.45-4.99,8-4.99c5.3,0,7.95,3.27,7.95,9.81V365.16z
		 M272.07,361.68h-0.09v14.56h-3.86v-35.16h3.86v4.23h0.09c1.9-3.2,4.67-4.8,8.32-4.8c3.1,0,5.53,1.08,7.27,3.23
		c1.74,2.16,2.61,5.04,2.61,8.67c0,4.03-0.98,7.25-2.94,9.68c-1.96,2.42-4.64,3.63-8.04,3.63
		C276.17,365.73,273.76,364.38,272.07,361.68z M271.97,351.97v3.36c0,1.99,0.65,3.68,1.94,5.07c1.29,1.39,2.94,2.08,4.93,2.08
		c2.34,0,4.17-0.89,5.49-2.68c1.32-1.79,1.99-4.27,1.99-7.45c0-2.68-0.62-4.78-1.86-6.3c-1.24-1.52-2.92-2.28-5.03-2.28
		c-2.24,0-4.04,0.78-5.41,2.34C272.65,347.66,271.97,349.62,271.97,351.97z M300.29,365.16h-3.86v-35.65h3.86V365.16z
		 M327.45,354.09h-17c0.06,2.68,0.78,4.75,2.16,6.21c1.38,1.46,3.28,2.19,5.69,2.19c2.71,0,5.2-0.89,7.48-2.68v3.62
		c-2.12,1.54-4.92,2.3-8.4,2.3c-3.4,0-6.08-1.09-8.02-3.28c-1.94-2.19-2.92-5.26-2.92-9.23c0-3.75,1.06-6.8,3.19-9.16
		c2.12-2.36,4.76-3.54,7.91-3.54c3.15,0,5.59,1.02,7.31,3.06c1.72,2.04,2.59,4.87,2.59,8.49V354.09z M323.5,350.82
		c-0.02-2.23-0.55-3.96-1.61-5.2c-1.06-1.24-2.53-1.86-4.41-1.86c-1.82,0-3.36,0.65-4.63,1.95c-1.27,1.3-2.05,3-2.35,5.1H323.5z
		 M252.39,162.99l-0.04,0.04h0.08L252.39,162.99z M438.22,163.03H252.35l-2.35,2.43l-0.41,0.45c-1.79,1.87-3.65,3.65-5.52,5.36
		c-14.24,13.11-31.37,23.01-49.96,27.88c-0.53,0.16-1.06,0.28-1.58,0.45l-2.35,0.57l-0.53,2.35c-0.2,0.85-0.37,1.7-0.53,2.6
		c-1.14,6.01-1.75,12.17-1.75,18.3c0,20.05,6.05,39.28,17.49,55.64c10.31,14.73,24.27,26.22,40.58,33.36
		c0.41,0.2,0.85,0.41,1.3,0.57c0.97,0.45,1.95,0.81,2.92,1.22l1.18,0.45l0.16,0.04l0.08-0.04c0.08,0.04,0.2,0.04,0.28,0.04h186.85
		c4.06,0,7.3-3.29,7.3-7.3V170.3C445.52,166.28,442.28,163.03,438.22,163.03z M425.6,174.68l-77.8,67.81
		c-1.62,1.38-3.98,1.38-5.56-0.04l-25.36-22.48c-0.12-5.44-0.69-10.84-1.75-16.11c-0.08-0.45-0.16-0.89-0.24-1.38l-0.53-2.35
		l-2.35-0.61c-0.57-0.12-1.14-0.28-1.7-0.41c-12.91-3.45-25.12-9.33-36.12-17l-8.4-7.43H425.6z M320.89,238.68l-6.37,5.64
		c0.73-3.21,1.3-6.45,1.7-9.78L320.89,238.68z M251.13,306.41c-2.39-0.97-4.75-2.07-7.06-3.25c-29.59-15.14-48.9-46.06-48.9-79.75
		c0-5.68,0.53-11.36,1.62-16.88c17.33-4.67,33.4-12.91,47.28-24.27c2.88-2.31,5.64-4.79,8.32-7.39
		c13.15,12.78,28.77,22.52,45.9,28.61c3.08,1.14,6.21,2.11,9.42,2.96c0.37,2.03,0.69,4.1,0.89,6.17c0.37,3.29,0.57,6.66,0.57,10.02
		c0,1.83-0.04,3.65-0.2,5.48c-0.53,9.01-2.43,17.78-5.56,26.01C294.47,277.8,275.64,297.2,251.13,306.41z M273.82,303.41
		c13.76-9.25,24.88-21.79,32.34-36.36l23.34-20.62l12.66,11.32c1.58,1.42,4.02,1.42,5.6,0l12.91-11.44l64.77,57.02L273.82,303.41z
		 M369.47,238.64l64.81-57.59l0.12,114.85L369.47,238.64z M268.62,284.78c3.08-2.27,6.01-4.83,8.6-7.59L268.62,284.78z
		 M297.52,218.02c-0.2-1.62-0.45-3.25-0.73-4.87c-2.56-0.69-5.07-1.5-7.55-2.43c0,0-0.04,0-0.04-0.04c-0.65-0.2-1.26-0.49-1.91-0.73
		c-1.42-0.57-2.84-1.18-4.26-1.87c-0.97-0.45-1.99-0.89-2.96-1.42c-0.69-0.32-1.42-0.69-2.11-1.1c-2.23-1.18-4.42-2.48-6.57-3.86
		c-1.34-0.81-2.64-1.7-3.9-2.6c-0.12-0.04-0.2-0.12-0.28-0.2c-1.38-0.93-2.72-1.95-4.06-2.96c-2.64-2.03-5.19-4.18-7.67-6.45
		c-1.06-0.93-2.11-1.91-3.12-2.92c-2.64,2.56-5.4,5.03-8.28,7.39c-10.8,8.77-23.13,15.71-36.4,19.28c-0.85,4.46-1.3,9.01-1.3,13.6
		c0,5.48,0.65,10.88,1.83,16.11c4.63,20.13,17.73,37.99,35.88,47.93c2.35,1.3,4.75,2.43,7.26,3.45c1.46-0.57,2.92-1.18,4.34-1.83
		c0.04,0,0.08-0.04,0.08-0.04c1.18-0.53,2.35-1.1,3.49-1.7c1.06-0.53,2.07-1.1,3.08-1.75c0.32-0.16,0.65-0.37,0.97-0.57
		c0.53-0.32,1.06-0.65,1.54-0.97c0.12-0.08,0.24-0.12,0.32-0.24c0.93-0.57,1.79-1.18,2.64-1.83c0.28-0.16,0.57-0.37,0.81-0.61
		l8.6-7.59c0.08,0,0.08,0,0.08-0.04c8.52-8.85,14.81-19.85,18.06-31.82c1.7-6.17,2.6-12.62,2.6-19.16
		C297.96,223.46,297.8,220.74,297.52,218.02z M255.59,259.74l-6.62,6.62h-0.04l-27.39-27.39l8.4-8.48l19.03,19.03l6.62-6.62
		l23.09-23.13l8.44,8.44L255.59,259.74z"/>
</g>
</svg>
