<?xml version="1.0" encoding="UTF-8"?>
<svg width="68px" height="30px" viewBox="0 0 68 30" version="1.1" xmlns="http://www.w3.org/2000/svg" xmlns:xlink="http://www.w3.org/1999/xlink">
    <!-- Generator: Sketch 43.2 (39069) - http://www.bohemiancoding.com/sketch -->
    <title>Group</title>
    <desc>Created with Sketch.</desc>
    <defs></defs>
    <g id="Page-1" stroke="none" stroke-width="1" fill="none" fill-rule="evenodd">
        <g id="icon">
            <g id="Group">
                <path d="M12.9493292,22.6135197 L10.7784049,20.4869582 L18.2490814,13.1671458 C20.9633779,14.6004143 24.4052303,14.2245747 26.6995961,11.9804476 C29.4941398,9.23888194 29.4941398,4.79380566 26.6995961,2.05607508 C23.9015429,-0.685358358 19.3641047,-0.685358358 16.565849,2.05607508 C14.2753977,4.30033441 13.893667,7.67641035 15.355663,10.3317525 L0.647964842,24.7440486 C-0.148634651,25.5235652 -0.148634651,26.8002559 0.647964842,27.5794419 C1.44334949,28.3589585 2.74674095,28.3589585 3.54205811,27.5794419 L5.71264493,29.7062679 C6.1126657,30.0979107 6.76017698,30.0979107 7.15986029,29.7062679 L8.60707565,28.2886043 C9.00756887,27.8970276 9.00756887,27.2625174 8.60707565,26.8709407 L6.43635385,24.7441147 L7.88336674,23.322087 L10.0550334,25.4529465 C10.4547842,25.8445893 11.1025655,25.8445893 11.5022488,25.4529465 L12.9493292,24.0352829 C13.3490125,23.6395405 13.3490125,23.0093943 12.9493292,22.6135197 Z M19.4602797,4.89173289 C20.6594647,3.71687063 22.6066554,3.71687063 23.8058403,4.89173289 C25.0005708,6.06269392 25.0005708,7.97382877 23.8058403,9.14498817 C22.6066554,10.3159492 20.6594647,10.3159492 19.4602797,9.14498817 C18.2648743,7.97389489 18.2648743,6.06276005 19.4602797,4.89173289 Z" id="Shape" fill="#000000" fill-rule="nonzero"></path>
                <text id="Simple-Login" font-family="GillSans-Light, Gill Sans" font-size="13" font-weight="300" fill="#9012FE">
                    <tspan x="34" y="12">Simple </tspan>
                    <tspan x="34" y="27">Login</tspan>
                </text>
            </g>
        </g>
    </g>
</svg>