<svg width="421" height="149" viewBox="0 0 421 149" fill="none" xmlns="http://www.w3.org/2000/svg">
<path d="M60.838 112.807H62.458C62.434 112.099 62.296 111.493 62.044 110.989C61.804 110.473 61.468 110.047 61.036 109.711C60.616 109.375 60.124 109.129 59.56 108.973C58.996 108.817 58.384 108.739 57.724 108.739C57.136 108.739 56.56 108.817 55.996 108.973C55.444 109.117 54.946 109.345 54.502 109.657C54.07 109.957 53.722 110.347 53.458 110.827C53.194 111.295 53.062 111.853 53.062 112.501C53.062 113.089 53.176 113.581 53.404 113.977C53.644 114.361 53.956 114.679 54.34 114.931C54.736 115.171 55.18 115.369 55.672 115.525C56.164 115.669 56.662 115.801 57.166 115.921C57.682 116.029 58.186 116.137 58.678 116.245C59.17 116.353 59.608 116.497 59.992 116.677C60.388 116.845 60.7 117.067 60.928 117.343C61.168 117.619 61.288 117.979 61.288 118.423C61.288 118.891 61.192 119.275 61 119.575C60.808 119.875 60.556 120.115 60.244 120.295C59.932 120.463 59.578 120.583 59.182 120.655C58.798 120.727 58.414 120.763 58.03 120.763C57.55 120.763 57.082 120.703 56.626 120.583C56.17 120.463 55.768 120.277 55.42 120.025C55.084 119.773 54.808 119.455 54.592 119.071C54.388 118.675 54.286 118.207 54.286 117.667H52.666C52.666 118.447 52.804 119.125 53.08 119.701C53.368 120.265 53.752 120.733 54.232 121.105C54.724 121.465 55.288 121.735 55.924 121.915C56.572 122.095 57.256 122.185 57.976 122.185C58.564 122.185 59.152 122.113 59.74 121.969C60.34 121.837 60.88 121.621 61.36 121.321C61.84 121.009 62.23 120.613 62.53 120.133C62.842 119.641 62.998 119.053 62.998 118.369C62.998 117.733 62.878 117.205 62.638 116.785C62.41 116.365 62.098 116.017 61.702 115.741C61.318 115.465 60.88 115.249 60.388 115.093C59.896 114.925 59.392 114.781 58.876 114.661C58.372 114.541 57.874 114.433 57.382 114.337C56.89 114.229 56.446 114.097 56.05 113.941C55.666 113.785 55.354 113.587 55.114 113.347C54.886 113.095 54.772 112.771 54.772 112.375C54.772 111.955 54.85 111.607 55.006 111.331C55.174 111.043 55.39 110.815 55.654 110.647C55.93 110.479 56.242 110.359 56.59 110.287C56.938 110.215 57.292 110.179 57.652 110.179C58.54 110.179 59.266 110.389 59.83 110.809C60.406 111.217 60.742 111.883 60.838 112.807ZM66.4439 110.917V109.045H64.9139V110.917H66.4439ZM64.9139 112.591V121.897H66.4439V112.591H64.9139ZM68.8141 112.591V121.897H70.3441V116.101C70.3441 115.921 70.3861 115.699 70.4701 115.435C70.5661 115.159 70.7101 114.895 70.9021 114.643C71.1061 114.391 71.3641 114.175 71.6761 113.995C72.0001 113.815 72.3841 113.725 72.8281 113.725C73.1761 113.725 73.4581 113.779 73.6741 113.887C73.9021 113.983 74.0821 114.127 74.2141 114.319C74.3461 114.499 74.4361 114.715 74.4841 114.967C74.5441 115.219 74.5741 115.495 74.5741 115.795V121.897H76.1041V116.101C76.1041 115.381 76.3201 114.805 76.7521 114.373C77.1841 113.941 77.7781 113.725 78.5341 113.725C78.9061 113.725 79.2061 113.779 79.4341 113.887C79.6741 113.995 79.8601 114.145 79.9921 114.337C80.1241 114.517 80.2141 114.733 80.2621 114.985C80.3101 115.237 80.3341 115.507 80.3341 115.795V121.897H81.8641V115.075C81.8641 114.595 81.7861 114.187 81.6301 113.851C81.4861 113.503 81.2761 113.221 81.0001 113.005C80.7361 112.789 80.4121 112.633 80.0281 112.537C79.6561 112.429 79.2361 112.375 78.7681 112.375C78.1561 112.375 77.5921 112.513 77.0761 112.789C76.5721 113.065 76.1641 113.455 75.8521 113.959C75.6601 113.383 75.3301 112.975 74.8621 112.735C74.3941 112.495 73.8721 112.375 73.2961 112.375C71.9881 112.375 70.9861 112.903 70.2901 113.959H70.2541V112.591H68.8141ZM84.2138 112.591V125.443H85.7438V120.655H85.7798C85.9478 120.931 86.1518 121.165 86.3918 121.357C86.6438 121.537 86.9078 121.681 87.1838 121.789C87.4598 121.897 87.7358 121.975 88.0118 122.023C88.2998 122.071 88.5578 122.095 88.7858 122.095C89.4938 122.095 90.1118 121.969 90.6398 121.717C91.1798 121.465 91.6238 121.123 91.9718 120.691C92.3318 120.247 92.5958 119.731 92.7638 119.143C92.9438 118.555 93.0338 117.931 93.0338 117.271C93.0338 116.611 92.9438 115.987 92.7638 115.399C92.5838 114.811 92.3138 114.295 91.9538 113.851C91.6058 113.395 91.1618 113.035 90.6218 112.771C90.0938 112.507 89.4698 112.375 88.7498 112.375C88.1018 112.375 87.5078 112.495 86.9678 112.735C86.4278 112.963 86.0318 113.335 85.7798 113.851H85.7438V112.591H84.2138ZM91.4138 117.163C91.4138 117.619 91.3658 118.063 91.2698 118.495C91.1738 118.927 91.0178 119.311 90.8018 119.647C90.5858 119.983 90.2978 120.253 89.9378 120.457C89.5898 120.661 89.1518 120.763 88.6238 120.763C88.0958 120.763 87.6458 120.667 87.2738 120.475C86.9018 120.271 86.5958 120.007 86.3558 119.683C86.1278 119.359 85.9598 118.987 85.8518 118.567C85.7438 118.135 85.6898 117.691 85.6898 117.235C85.6898 116.803 85.7378 116.377 85.8338 115.957C85.9418 115.537 86.1098 115.165 86.3378 114.841C86.5658 114.505 86.8598 114.235 87.2198 114.031C87.5798 113.827 88.0178 113.725 88.5338 113.725C89.0258 113.725 89.4518 113.821 89.8118 114.013C90.1838 114.205 90.4838 114.463 90.7118 114.787C90.9518 115.111 91.1258 115.483 91.2338 115.903C91.3538 116.311 91.4138 116.731 91.4138 117.163ZM94.9197 109.045V121.897H96.4497V109.045H94.9197ZM105.282 116.353H99.936C99.96 115.993 100.038 115.657 100.17 115.345C100.302 115.021 100.482 114.739 100.71 114.499C100.938 114.259 101.208 114.073 101.52 113.941C101.844 113.797 102.204 113.725 102.6 113.725C102.984 113.725 103.332 113.797 103.644 113.941C103.968 114.073 104.244 114.259 104.472 114.499C104.712 114.727 104.898 115.003 105.03 115.327C105.174 115.651 105.258 115.993 105.282 116.353ZM106.758 118.945H105.246C105.114 119.557 104.838 120.013 104.418 120.313C104.01 120.613 103.482 120.763 102.834 120.763C102.33 120.763 101.892 120.679 101.52 120.511C101.148 120.343 100.842 120.121 100.602 119.845C100.362 119.557 100.188 119.233 100.08 118.873C99.972 118.501 99.924 118.111 99.936 117.703H106.902C106.926 117.139 106.872 116.545 106.74 115.921C106.62 115.297 106.392 114.721 106.056 114.193C105.732 113.665 105.294 113.233 104.742 112.897C104.202 112.549 103.518 112.375 102.69 112.375C102.054 112.375 101.466 112.495 100.926 112.735C100.398 112.975 99.936 113.311 99.54 113.743C99.156 114.175 98.856 114.685 98.64 115.273C98.424 115.861 98.316 116.509 98.316 117.217C98.34 117.925 98.442 118.579 98.622 119.179C98.814 119.779 99.096 120.295 99.468 120.727C99.84 121.159 100.296 121.495 100.836 121.735C101.388 121.975 102.036 122.095 102.78 122.095C103.836 122.095 104.712 121.831 105.408 121.303C106.104 120.775 106.554 119.989 106.758 118.945Z" fill="#A0177B"/>
<path d="M109.404 109.045V121.897H117.918V120.457H111.114V109.045H109.404ZM120.27 117.253C120.27 116.689 120.342 116.191 120.486 115.759C120.642 115.315 120.852 114.943 121.116 114.643C121.38 114.343 121.686 114.115 122.034 113.959C122.394 113.803 122.772 113.725 123.168 113.725C123.564 113.725 123.936 113.803 124.284 113.959C124.644 114.115 124.956 114.343 125.22 114.643C125.484 114.943 125.688 115.315 125.832 115.759C125.988 116.191 126.066 116.689 126.066 117.253C126.066 117.817 125.988 118.321 125.832 118.765C125.688 119.197 125.484 119.563 125.22 119.863C124.956 120.151 124.644 120.373 124.284 120.529C123.936 120.685 123.564 120.763 123.168 120.763C122.772 120.763 122.394 120.685 122.034 120.529C121.686 120.373 121.38 120.151 121.116 119.863C120.852 119.563 120.642 119.197 120.486 118.765C120.342 118.321 120.27 117.817 120.27 117.253ZM118.65 117.253C118.65 117.937 118.746 118.573 118.938 119.161C119.13 119.749 119.418 120.265 119.802 120.709C120.186 121.141 120.66 121.483 121.224 121.735C121.788 121.975 122.436 122.095 123.168 122.095C123.912 122.095 124.56 121.975 125.112 121.735C125.676 121.483 126.15 121.141 126.534 120.709C126.918 120.265 127.206 119.749 127.398 119.161C127.59 118.573 127.686 117.937 127.686 117.253C127.686 116.569 127.59 115.933 127.398 115.345C127.206 114.745 126.918 114.229 126.534 113.797C126.15 113.353 125.676 113.005 125.112 112.753C124.56 112.501 123.912 112.375 123.168 112.375C122.436 112.375 121.788 112.501 121.224 112.753C120.66 113.005 120.186 113.353 119.802 113.797C119.418 114.229 119.13 114.745 118.938 115.345C118.746 115.933 118.65 116.569 118.65 117.253ZM137.518 121.105V112.591H136.078V113.923H136.06C135.784 113.407 135.4 113.023 134.908 112.771C134.416 112.507 133.876 112.375 133.288 112.375C132.484 112.375 131.806 112.531 131.254 112.843C130.702 113.143 130.258 113.533 129.922 114.013C129.586 114.481 129.346 115.009 129.202 115.597C129.058 116.173 128.986 116.737 128.986 117.289C128.986 117.925 129.07 118.531 129.238 119.107C129.418 119.671 129.682 120.169 130.03 120.601C130.378 121.021 130.81 121.357 131.326 121.609C131.842 121.861 132.448 121.987 133.144 121.987C133.744 121.987 134.308 121.855 134.836 121.591C135.376 121.315 135.778 120.889 136.042 120.313H136.078V120.925C136.078 121.441 136.024 121.915 135.916 122.347C135.82 122.779 135.658 123.145 135.43 123.445C135.202 123.757 134.914 123.997 134.566 124.165C134.218 124.345 133.792 124.435 133.288 124.435C133.036 124.435 132.772 124.405 132.496 124.345C132.22 124.297 131.962 124.213 131.722 124.093C131.494 123.973 131.296 123.817 131.128 123.625C130.972 123.433 130.888 123.199 130.876 122.923H129.346C129.37 123.427 129.502 123.853 129.742 124.201C129.982 124.549 130.282 124.831 130.642 125.047C131.014 125.263 131.422 125.419 131.866 125.515C132.322 125.611 132.766 125.659 133.198 125.659C134.686 125.659 135.778 125.281 136.474 124.525C137.17 123.769 137.518 122.629 137.518 121.105ZM133.234 120.655C132.73 120.655 132.31 120.553 131.974 120.349C131.638 120.133 131.368 119.857 131.164 119.521C130.96 119.173 130.816 118.789 130.732 118.369C130.648 117.949 130.606 117.529 130.606 117.109C130.606 116.665 130.654 116.239 130.75 115.831C130.858 115.423 131.02 115.063 131.236 114.751C131.464 114.439 131.752 114.193 132.1 114.013C132.448 113.821 132.868 113.725 133.36 113.725C133.84 113.725 134.248 113.821 134.584 114.013C134.92 114.205 135.19 114.463 135.394 114.787C135.61 115.099 135.766 115.453 135.862 115.849C135.958 116.245 136.006 116.647 136.006 117.055C136.006 117.487 135.952 117.919 135.844 118.351C135.748 118.783 135.592 119.173 135.376 119.521C135.16 119.857 134.872 120.133 134.512 120.349C134.164 120.553 133.738 120.655 133.234 120.655ZM141.446 110.917V109.045H139.916V110.917H141.446ZM139.916 112.591V121.897H141.446V112.591H139.916ZM143.816 112.591V121.897H145.346V116.641C145.346 116.221 145.4 115.837 145.508 115.489C145.628 115.129 145.802 114.817 146.03 114.553C146.258 114.289 146.54 114.085 146.876 113.941C147.224 113.797 147.632 113.725 148.1 113.725C148.688 113.725 149.15 113.893 149.486 114.229C149.822 114.565 149.99 115.021 149.99 115.597V121.897H151.52V115.777C151.52 115.273 151.466 114.817 151.358 114.409C151.262 113.989 151.088 113.629 150.836 113.329C150.584 113.029 150.254 112.795 149.846 112.627C149.438 112.459 148.928 112.375 148.316 112.375C146.936 112.375 145.928 112.939 145.292 114.067H145.256V112.591H143.816Z" fill="#AE0721"/>
<path d="M96.484 63.0791C89.7767 61.2608 83.6431 57.7638 78.662 52.918C73.6577 57.7849 67.4921 61.2912 60.7509 63.104C60.4083 64.8998 60.2363 66.7239 60.237 68.552C60.2606 74.2887 61.986 79.8895 65.1947 84.645C68.4034 89.4005 72.9512 93.0968 78.2621 95.266C83.748 93.1995 88.4748 89.5117 91.8134 84.693C95.1521 79.8743 96.9444 74.1533 96.952 68.291C96.953 66.5432 96.7963 64.7988 96.484 63.0791ZM77.31 84.401H77.305L66.318 73.413L69.695 70.026L77.31 77.641L89.2199 65.728L92.602 69.1101L77.31 84.401ZM96.484 63.0791C89.7767 61.2608 83.6431 57.7638 78.662 52.918C73.6577 57.7849 67.4921 61.2912 60.7509 63.104C60.4083 64.8998 60.2363 66.7239 60.237 68.552C60.2606 74.2887 61.986 79.8895 65.1947 84.645C68.4034 89.4005 72.9512 93.0968 78.2621 95.266C83.748 93.1995 88.4748 89.5117 91.8134 84.693C95.1521 79.8743 96.9444 74.1533 96.952 68.291C96.953 66.5432 96.7963 64.7988 96.484 63.0791ZM77.31 84.401H77.305L66.318 73.413L69.695 70.026L77.31 77.641L89.2199 65.728L92.602 69.1101L77.31 84.401ZM78.662 52.917C73.6577 57.7838 67.4921 61.2903 60.7509 63.103C60.4083 64.8988 60.2363 66.7229 60.237 68.551C60.2606 74.2878 61.986 79.8885 65.1947 84.644C68.4034 89.3995 72.9512 93.0958 78.2621 95.265C83.7479 93.1986 88.4744 89.5109 91.8131 84.6924C95.1518 79.8739 96.9442 74.1531 96.952 68.291C96.9521 66.5441 96.7949 64.8007 96.482 63.082C89.7758 61.2633 83.6434 57.7664 78.6631 52.921L78.662 52.917ZM77.31 84.401H77.305L66.318 73.413L69.695 70.026L77.31 77.641L89.2199 65.728L92.602 69.1101L77.31 84.401ZM96.484 63.0791C89.7767 61.2608 83.6431 57.7638 78.662 52.918C73.6577 57.7849 67.4921 61.2912 60.7509 63.104C60.4083 64.8998 60.2363 66.7239 60.237 68.552C60.2606 74.2887 61.986 79.8895 65.1947 84.645C68.4034 89.4005 72.9512 93.0968 78.2621 95.266C83.748 93.1995 88.4748 89.5117 91.8134 84.693C95.1521 79.8743 96.9444 74.1533 96.952 68.291C96.953 66.5432 96.7963 64.7988 96.484 63.0791ZM77.31 84.401H77.305L66.318 73.413L69.695 70.026L77.31 77.641L89.2199 65.728L92.602 69.1101L77.31 84.401ZM96.484 63.0791C89.7767 61.2608 83.6431 57.7638 78.662 52.918C73.6577 57.7849 67.4921 61.2912 60.7509 63.104C60.4083 64.8998 60.2363 66.7239 60.237 68.552C60.2606 74.2887 61.986 79.8895 65.1947 84.645C68.4034 89.4005 72.9512 93.0968 78.2621 95.266C83.748 93.1995 88.4748 89.5117 91.8134 84.693C95.1521 79.8743 96.9444 74.1533 96.952 68.291C96.953 66.5432 96.7963 64.7988 96.484 63.0791ZM77.31 84.401H77.305L66.318 73.413L69.695 70.026L77.31 77.641L89.2199 65.728L92.602 69.1101L77.31 84.401Z" fill="url(#paint0_linear_2_60)"/>
<path d="M147.344 36.536C147.033 36.0309 146.664 35.5641 146.244 35.145C146.115 35.015 145.977 34.891 145.839 34.772C144.619 33.7171 143.086 33.0942 141.476 33H85.6099C84.0002 33.0943 82.4666 33.7172 81.247 34.772C81.1051 34.8869 80.9714 35.0115 80.8469 35.145C80.4249 35.5584 80.0555 36.0222 79.747 36.526C79.0296 37.6932 78.6508 39.037 78.653 40.407V43.319L77.7269 44.274L77.5669 44.4431C71.4887 50.7363 63.7997 55.2406 55.3379 57.465C55.1249 57.525 54.9089 57.579 54.6909 57.634L53.7489 57.867L53.5409 58.812C53.4679 59.153 53.398 59.5 53.33 59.848C52.8673 62.27 52.6346 64.7303 52.6349 67.196C52.62 75.1743 55.0694 82.9624 59.648 89.496C63.7352 95.3649 69.3618 99.9929 75.909 102.871C76.469 103.118 77.0329 103.351 77.6089 103.571L78.1489 103.779L78.6919 103.579C79.4309 103.317 80.158 103.029 80.877 102.728C88.7122 99.3805 95.2357 93.5592 99.45 86.1541H141.019C142.776 86.1555 144.476 85.528 145.811 84.385C145.961 84.261 146.094 84.138 146.232 84C146.651 83.581 147.02 83.1153 147.332 82.612C148.05 81.4464 148.429 80.104 148.427 78.735V40.4041C148.428 39.0397 148.053 37.7014 147.344 36.536ZM85.664 36.541C85.792 36.531 85.9219 36.526 86.0559 36.526H141.019C141.152 36.526 141.281 36.526 141.409 36.541H141.99L141.896 36.626L114.69 60.696C114.372 60.9763 113.963 61.1309 113.54 61.1309C113.116 61.1309 112.707 60.9763 112.39 60.696L85.19 36.626L85.095 36.541H85.664ZM82.1829 40.408C82.1807 39.9051 82.2787 39.4067 82.471 38.942L105.795 59.586L104.13 61.056C104.045 60.482 103.945 59.9127 103.83 59.348C103.801 59.164 103.767 58.987 103.73 58.803L103.53 57.848L102.583 57.6151C102.355 57.5551 102.128 57.501 101.899 57.441C94.5738 55.4846 87.8176 51.8174 82.1859 46.741L82.1829 40.408ZM78.178 100.453C71.5694 97.7497 65.9107 93.1473 61.9179 87.228C57.925 81.3086 55.7772 74.3381 55.746 67.198C55.7464 64.9231 55.9619 62.6533 56.3899 60.419C64.7804 58.1644 72.4536 53.7984 78.678 47.737C84.8754 53.7708 92.5087 58.1249 100.857 60.388C101.249 62.5284 101.446 64.7 101.446 66.876C101.436 74.1735 99.2038 81.2949 95.0471 87.2929C90.8905 93.2909 85.0062 97.8811 78.1769 100.453H78.178ZM101.228 82.622C103.43 77.6646 104.567 72.3004 104.566 66.876C104.566 66.39 104.556 65.91 104.536 65.425L108.461 61.949L112.393 65.425C112.71 65.7055 113.119 65.8602 113.543 65.8602C113.967 65.8602 114.375 65.7055 114.693 65.425L118.624 61.949L141.883 82.523L141.992 82.623L101.228 82.622ZM144.893 78.7451C144.895 79.2461 144.798 79.7427 144.607 80.2061L121.298 59.586L144.611 38.9561C144.798 39.4169 144.893 39.9097 144.892 40.407L144.893 78.7451Z" fill="url(#paint1_linear_2_60)"/>
<path d="M226 90.1474V100.41H233.198V90.5877C233.198 89.635 233.574 88.7144 234.254 88.042C234.926 87.3695 235.845 86.9853 236.797 86.9853H244.179C247.618 86.9853 250.922 85.6164 253.353 83.1747C255.784 80.7411 257.152 77.4349 257.152 73.9926C257.152 70.5503 255.784 67.2441 253.353 64.8025C250.914 62.3689 247.61 61 244.171 61H226V73.8245H233.198V67.7805H243.691C245.323 67.7805 246.883 68.4289 248.034 69.5817C249.186 70.7345 249.834 72.2955 249.834 73.9286C249.834 75.5617 249.186 77.1227 248.034 78.2755C246.883 79.4282 245.323 80.0767 243.691 80.0767H236.069C234.75 80.0767 233.438 80.3328 232.222 80.8452C230.999 81.3495 229.895 82.094 228.959 83.0306C228.023 83.9673 227.288 85.08 226.776 86.2968C226.256 87.5136 226 88.8265 226 90.1474Z" fill="#6D4AFF"/>
<path d="M236.789 86.9853C233.926 86.9853 231.183 88.122 229.159 90.1474C227.136 92.1727 226 94.9185 226 97.7844V100.402H233.198V90.5877C233.198 89.635 233.574 88.7144 234.254 88.042C234.918 87.3695 235.837 86.9853 236.789 86.9853Z" fill="url(#paint2_linear_2_60)"/>
<path d="M258.264 100.41V84.7758C258.264 78.3956 261.983 73.3202 269.429 73.3202C270.62 73.3042 271.812 73.4323 272.98 73.7124V80.1407C272.132 80.0847 271.404 80.0847 271.06 80.0847C267.117 80.0847 265.422 81.8939 265.422 85.5603V100.41H258.264V100.41Z" fill="#6D4AFF"/>
<path d="M275.123 87.1454C275.123 79.3002 281.042 73.3202 289.28 73.3202C297.517 73.3202 303.436 79.3002 303.436 87.1454C303.436 94.9906 297.517 101.027 289.28 101.027C281.042 101.027 275.123 94.9906 275.123 87.1454ZM296.382 87.1454C296.382 82.6864 293.39 79.5243 289.28 79.5243C285.161 79.5243 282.177 82.6784 282.177 87.1454C282.177 91.6604 285.169 94.7664 289.28 94.7664C293.39 94.7664 296.382 91.6604 296.382 87.1454Z" fill="#6D4AFF"/>
<path d="M326.318 87.1454C326.318 79.3002 332.236 73.3202 340.474 73.3202C348.704 73.3202 354.623 79.3002 354.623 87.1454C354.623 94.9906 348.704 101.027 340.474 101.027C332.244 101.027 326.318 94.9906 326.318 87.1454ZM347.576 87.1454C347.576 82.6864 344.585 79.5243 340.474 79.5243C336.363 79.5243 333.372 82.6784 333.372 87.1454C333.372 91.6604 336.363 94.7664 340.474 94.7664C344.585 94.7664 347.576 91.6604 347.576 87.1454Z" fill="#6D4AFF"/>
<path d="M358.342 100.41V85.3362C358.342 78.3395 362.796 73.3122 370.746 73.3122C378.64 73.3122 383.095 78.3315 383.095 85.3362V100.402H375.993V85.9045C375.993 82.014 374.241 79.5803 370.746 79.5803C367.251 79.5803 365.5 82.006 365.5 85.9045V100.41H358.342Z" fill="#6D4AFF"/>
<path d="M324.182 79.5803H316.456V89.4589C316.456 92.9012 317.696 94.4782 321.247 94.4782C321.583 94.4782 322.431 94.4782 323.503 94.4222V100.234C322.039 100.626 320.743 100.858 319.328 100.858C313.353 100.858 309.29 97.2481 309.29 90.4195V79.5803H304.492V73.8806H305.691C306.163 73.8806 306.635 73.7845 307.067 73.6084C307.507 73.4243 307.899 73.1601 308.235 72.8239C308.571 72.4876 308.834 72.0954 309.018 71.6551C309.202 71.2148 309.29 70.7505 309.29 70.2782V64.9066H316.448V73.8806H324.174V79.5803H324.182Z" fill="#6D4AFF"/>
<line x1="191" y1="31" x2="191" y2="125" stroke="#6D4AFF" stroke-width="4"/>
<path d="M225.882 37.762H227.394V38.742H227.422C227.646 38.322 227.959 38.0233 228.36 37.846C228.761 37.6593 229.195 37.566 229.662 37.566C230.231 37.566 230.726 37.6687 231.146 37.874C231.575 38.07 231.93 38.3453 232.21 38.7C232.49 39.0453 232.7 39.4513 232.84 39.918C232.98 40.3847 233.05 40.884 233.05 41.416C233.05 41.9013 232.985 42.3727 232.854 42.83C232.733 43.2873 232.541 43.6933 232.28 44.048C232.028 44.3933 231.706 44.6733 231.314 44.888C230.922 45.0933 230.46 45.196 229.928 45.196C229.695 45.196 229.461 45.1727 229.228 45.126C228.995 45.0887 228.771 45.0233 228.556 44.93C228.341 44.8367 228.141 44.72 227.954 44.58C227.777 44.4307 227.627 44.258 227.506 44.062H227.478V47.674H225.882V37.762ZM231.454 41.388C231.454 41.0613 231.412 40.744 231.328 40.436C231.244 40.128 231.118 39.8573 230.95 39.624C230.782 39.3813 230.572 39.19 230.32 39.05C230.068 38.9007 229.779 38.826 229.452 38.826C228.78 38.826 228.271 39.0593 227.926 39.526C227.59 39.9927 227.422 40.6133 227.422 41.388C227.422 41.752 227.464 42.0927 227.548 42.41C227.641 42.718 227.777 42.984 227.954 43.208C228.131 43.432 228.341 43.6093 228.584 43.74C228.836 43.8707 229.125 43.936 229.452 43.936C229.816 43.936 230.124 43.8613 230.376 43.712C230.628 43.5627 230.833 43.3713 230.992 43.138C231.16 42.8953 231.277 42.6247 231.342 42.326C231.417 42.018 231.454 41.7053 231.454 41.388ZM234.399 37.762H235.897V39.162H235.925C235.971 38.966 236.06 38.7747 236.191 38.588C236.331 38.4013 236.494 38.2333 236.681 38.084C236.877 37.9253 237.091 37.7993 237.325 37.706C237.558 37.6127 237.796 37.566 238.039 37.566C238.225 37.566 238.351 37.5707 238.417 37.58C238.491 37.5893 238.566 37.5987 238.641 37.608V39.148C238.529 39.1293 238.412 39.1153 238.291 39.106C238.179 39.0873 238.067 39.078 237.955 39.078C237.684 39.078 237.427 39.134 237.185 39.246C236.951 39.3487 236.746 39.5073 236.569 39.722C236.391 39.9273 236.251 40.184 236.149 40.492C236.046 40.8 235.995 41.1547 235.995 41.556V45H234.399V37.762ZM242.392 45.196C241.814 45.196 241.296 45.1027 240.838 44.916C240.39 44.72 240.008 44.454 239.69 44.118C239.382 43.782 239.144 43.3807 238.976 42.914C238.818 42.4473 238.738 41.934 238.738 41.374C238.738 40.8233 238.818 40.3147 238.976 39.848C239.144 39.3813 239.382 38.98 239.69 38.644C240.008 38.308 240.39 38.0467 240.838 37.86C241.296 37.664 241.814 37.566 242.392 37.566C242.971 37.566 243.484 37.664 243.932 37.86C244.39 38.0467 244.772 38.308 245.08 38.644C245.398 38.98 245.636 39.3813 245.794 39.848C245.962 40.3147 246.046 40.8233 246.046 41.374C246.046 41.934 245.962 42.4473 245.794 42.914C245.636 43.3807 245.398 43.782 245.08 44.118C244.772 44.454 244.39 44.72 243.932 44.916C243.484 45.1027 242.971 45.196 242.392 45.196ZM242.392 43.936C242.747 43.936 243.055 43.8613 243.316 43.712C243.578 43.5627 243.792 43.3667 243.96 43.124C244.128 42.8813 244.25 42.6107 244.324 42.312C244.408 42.004 244.45 41.6913 244.45 41.374C244.45 41.066 244.408 40.758 244.324 40.45C244.25 40.142 244.128 39.8713 243.96 39.638C243.792 39.3953 243.578 39.1993 243.316 39.05C243.055 38.9007 242.747 38.826 242.392 38.826C242.038 38.826 241.73 38.9007 241.468 39.05C241.207 39.1993 240.992 39.3953 240.824 39.638C240.656 39.8713 240.53 40.142 240.446 40.45C240.372 40.758 240.334 41.066 240.334 41.374C240.334 41.6913 240.372 42.004 240.446 42.312C240.53 42.6107 240.656 42.8813 240.824 43.124C240.992 43.3667 241.207 43.5627 241.468 43.712C241.73 43.8613 242.038 43.936 242.392 43.936ZM246.659 37.762H248.395L250.229 43.32H250.257L252.021 37.762H253.673L251.083 45H249.291L246.659 37.762ZM254.675 35.004H256.271V36.516H254.675V35.004ZM254.675 37.762H256.271V45H254.675V37.762ZM264.828 45H263.316V44.02H263.288C263.073 44.44 262.761 44.7433 262.35 44.93C261.939 45.1073 261.505 45.196 261.048 45.196C260.479 45.196 259.979 45.098 259.55 44.902C259.13 44.6967 258.78 44.4213 258.5 44.076C258.22 43.7307 258.01 43.3247 257.87 42.858C257.73 42.382 257.66 41.8733 257.66 41.332C257.66 40.6787 257.749 40.114 257.926 39.638C258.103 39.162 258.337 38.77 258.626 38.462C258.925 38.154 259.261 37.93 259.634 37.79C260.017 37.6407 260.404 37.566 260.796 37.566C261.02 37.566 261.249 37.5893 261.482 37.636C261.715 37.6733 261.939 37.7387 262.154 37.832C262.369 37.9253 262.565 38.0467 262.742 38.196C262.929 38.336 263.083 38.504 263.204 38.7H263.232V35.004H264.828V45ZM259.256 41.458C259.256 41.766 259.293 42.0693 259.368 42.368C259.452 42.6667 259.573 42.9327 259.732 43.166C259.9 43.3993 260.11 43.586 260.362 43.726C260.614 43.866 260.913 43.936 261.258 43.936C261.613 43.936 261.916 43.8613 262.168 43.712C262.429 43.5627 262.639 43.3667 262.798 43.124C262.966 42.8813 263.087 42.6107 263.162 42.312C263.246 42.004 263.288 41.6913 263.288 41.374C263.288 40.5713 263.106 39.946 262.742 39.498C262.387 39.05 261.902 38.826 261.286 38.826C260.913 38.826 260.595 38.9053 260.334 39.064C260.082 39.2133 259.872 39.414 259.704 39.666C259.545 39.9087 259.429 40.1887 259.354 40.506C259.289 40.814 259.256 41.1313 259.256 41.458ZM271.539 40.744C271.52 40.492 271.464 40.2493 271.371 40.016C271.287 39.7827 271.165 39.582 271.007 39.414C270.857 39.2367 270.671 39.0967 270.447 38.994C270.232 38.882 269.989 38.826 269.719 38.826C269.439 38.826 269.182 38.8773 268.949 38.98C268.725 39.0733 268.529 39.2087 268.361 39.386C268.202 39.554 268.071 39.7547 267.969 39.988C267.875 40.2213 267.824 40.4733 267.815 40.744H271.539ZM267.815 41.794C267.815 42.074 267.852 42.3447 267.927 42.606C268.011 42.8673 268.132 43.096 268.291 43.292C268.449 43.488 268.65 43.6467 268.893 43.768C269.135 43.88 269.425 43.936 269.761 43.936C270.227 43.936 270.601 43.838 270.881 43.642C271.17 43.4367 271.385 43.1333 271.525 42.732H273.037C272.953 43.124 272.808 43.474 272.603 43.782C272.397 44.09 272.15 44.3513 271.861 44.566C271.571 44.7713 271.245 44.9253 270.881 45.028C270.526 45.14 270.153 45.196 269.761 45.196C269.191 45.196 268.687 45.1027 268.249 44.916C267.81 44.7293 267.437 44.468 267.129 44.132C266.83 43.796 266.601 43.3947 266.443 42.928C266.293 42.4613 266.219 41.948 266.219 41.388C266.219 40.8747 266.298 40.3893 266.457 39.932C266.625 39.4653 266.858 39.0593 267.157 38.714C267.465 38.3593 267.833 38.0793 268.263 37.874C268.692 37.6687 269.177 37.566 269.719 37.566C270.288 37.566 270.797 37.6873 271.245 37.93C271.702 38.1633 272.08 38.476 272.379 38.868C272.677 39.26 272.892 39.7127 273.023 40.226C273.163 40.73 273.2 41.2527 273.135 41.794H267.815ZM281.166 45H279.654V44.02H279.626C279.411 44.44 279.098 44.7433 278.688 44.93C278.277 45.1073 277.843 45.196 277.386 45.196C276.816 45.196 276.317 45.098 275.888 44.902C275.468 44.6967 275.118 44.4213 274.838 44.076C274.558 43.7307 274.348 43.3247 274.208 42.858C274.068 42.382 273.998 41.8733 273.998 41.332C273.998 40.6787 274.086 40.114 274.264 39.638C274.441 39.162 274.674 38.77 274.964 38.462C275.262 38.154 275.598 37.93 275.972 37.79C276.354 37.6407 276.742 37.566 277.134 37.566C277.358 37.566 277.586 37.5893 277.82 37.636C278.053 37.6733 278.277 37.7387 278.492 37.832C278.706 37.9253 278.902 38.0467 279.08 38.196C279.266 38.336 279.42 38.504 279.542 38.7H279.57V35.004H281.166V45ZM275.594 41.458C275.594 41.766 275.631 42.0693 275.706 42.368C275.79 42.6667 275.911 42.9327 276.07 43.166C276.238 43.3993 276.448 43.586 276.7 43.726C276.952 43.866 277.25 43.936 277.596 43.936C277.95 43.936 278.254 43.8613 278.506 43.712C278.767 43.5627 278.977 43.3667 279.136 43.124C279.304 42.8813 279.425 42.6107 279.5 42.312C279.584 42.004 279.626 41.6913 279.626 41.374C279.626 40.5713 279.444 39.946 279.08 39.498C278.725 39.05 278.24 38.826 277.624 38.826C277.25 38.826 276.933 38.9053 276.672 39.064C276.42 39.2133 276.21 39.414 276.042 39.666C275.883 39.9087 275.766 40.1887 275.692 40.506C275.626 40.814 275.594 41.1313 275.594 41.458ZM286.845 35.004H288.441V38.7H288.469C288.581 38.5227 288.716 38.364 288.875 38.224C289.034 38.084 289.206 37.9673 289.393 37.874C289.589 37.7713 289.79 37.6967 289.995 37.65C290.21 37.594 290.42 37.566 290.625 37.566C291.194 37.566 291.689 37.6687 292.109 37.874C292.538 38.07 292.893 38.3453 293.173 38.7C293.453 39.0453 293.663 39.4513 293.803 39.918C293.943 40.3847 294.013 40.884 294.013 41.416C294.013 41.9013 293.948 42.3727 293.817 42.83C293.696 43.2873 293.504 43.6933 293.243 44.048C292.991 44.3933 292.669 44.6733 292.277 44.888C291.885 45.0933 291.423 45.196 290.891 45.196C290.648 45.196 290.401 45.1773 290.149 45.14C289.906 45.112 289.673 45.0513 289.449 44.958C289.225 44.8647 289.02 44.7433 288.833 44.594C288.656 44.4447 288.506 44.2487 288.385 44.006H288.357V45H286.845V35.004ZM292.417 41.388C292.417 41.0613 292.375 40.744 292.291 40.436C292.207 40.128 292.081 39.8573 291.913 39.624C291.745 39.3813 291.535 39.19 291.283 39.05C291.031 38.9007 290.742 38.826 290.415 38.826C289.743 38.826 289.234 39.0593 288.889 39.526C288.553 39.9927 288.385 40.6133 288.385 41.388C288.385 41.752 288.427 42.0927 288.511 42.41C288.604 42.718 288.74 42.984 288.917 43.208C289.094 43.432 289.304 43.6093 289.547 43.74C289.799 43.8707 290.088 43.936 290.415 43.936C290.779 43.936 291.087 43.8613 291.339 43.712C291.591 43.5627 291.796 43.3713 291.955 43.138C292.123 42.8953 292.24 42.6247 292.305 42.326C292.38 42.018 292.417 41.7053 292.417 41.388ZM294.563 37.762H296.313L298.203 43.166H298.231L300.065 37.762H301.731L298.917 45.392C298.787 45.7187 298.656 46.0313 298.525 46.33C298.404 46.6287 298.25 46.89 298.063 47.114C297.886 47.3473 297.662 47.5293 297.391 47.66C297.121 47.8 296.775 47.87 296.355 47.87C295.982 47.87 295.613 47.842 295.249 47.786V46.442C295.38 46.4607 295.506 46.4793 295.627 46.498C295.749 46.526 295.875 46.54 296.005 46.54C296.192 46.54 296.346 46.5167 296.467 46.47C296.589 46.4233 296.687 46.3533 296.761 46.26C296.845 46.176 296.915 46.0733 296.971 45.952C297.027 45.8307 297.079 45.6907 297.125 45.532L297.307 44.972L294.563 37.762Z" fill="black"/>
<defs>
<linearGradient id="paint0_linear_2_60" x1="60.237" y1="74.0915" x2="96.952" y2="74.0915" gradientUnits="userSpaceOnUse">
<stop stop-color="#E3156A"/>
<stop offset="1" stop-color="#91187F"/>
</linearGradient>
<linearGradient id="paint1_linear_2_60" x1="52.6348" y1="68.3895" x2="148.427" y2="68.3895" gradientUnits="userSpaceOnUse">
<stop stop-color="#E3156A"/>
<stop offset="1" stop-color="#91187F"/>
</linearGradient>
<linearGradient id="paint2_linear_2_60" x1="231.393" y1="98.4662" x2="231.393" y2="83.388" gradientUnits="userSpaceOnUse">
<stop stop-color="#6D4BFD"/>
<stop offset="1" stop-color="#1C0554"/>
</linearGradient>
</defs>
</svg>
