<svg xmlns="http://www.w3.org/2000/svg" width="349.476" height="53.252" viewBox="0 0 349.476 53.252">
  <g id="Group_165" data-name="Group 165" transform="translate(-77.524 -550.504)">
    <g id="Group_86" data-name="Group 86" transform="translate(321.312 559.199)">
      <path id="Path_200" data-name="Path 200" d="M432.939,237.737H416.19V205.45h3.78v28.862h12.969Z" transform="translate(-416.19 -204.029)" fill="#fff"/>
      <path id="Path_201" data-name="Path 201" d="M455.608,242.065a10.7,10.7,0,0,1-8.159-3.23,11.953,11.953,0,0,1-3.049-8.57q0-5.806,3.174-9.071a11.41,11.41,0,0,1,8.576-3.265A10.331,10.331,0,0,1,464.2,221.1q2.889,3.174,2.9,8.806a12.38,12.38,0,0,1-3.119,8.834A10.932,10.932,0,0,1,455.608,242.065Zm.271-21.024a7.031,7.031,0,0,0-5.632,2.423,9.985,9.985,0,0,0-2.074,6.676,9.4,9.4,0,0,0,2.1,6.46,7.131,7.131,0,0,0,5.6,2.367,6.759,6.759,0,0,0,5.506-2.318q1.932-2.318,1.928-6.6,0-4.323-1.928-6.662A6.7,6.7,0,0,0,455.879,221.042Z" transform="translate(-424.762 -207.822)" fill="#fff"/>
      <path id="Path_202" data-name="Path 202" d="M504.453,239.677q0,12.7-12.155,12.7a16.342,16.342,0,0,1-7.477-1.622v-3.69a15.348,15.348,0,0,0,7.428,2.158q8.51,0,8.507-9.05v-2.52h-.09a9.324,9.324,0,0,1-14.842,1.344,12.294,12.294,0,0,1-2.625-8.249q0-5.879,2.826-9.342a9.445,9.445,0,0,1,7.734-3.467,7.521,7.521,0,0,1,6.913,3.738h.091v-3.2h3.69Zm-3.69-8.576v-3.4A6.6,6.6,0,0,0,498.9,223a6.1,6.1,0,0,0-4.629-1.956,6.42,6.42,0,0,0-5.36,2.485,11.131,11.131,0,0,0-1.935,6.968,9.534,9.534,0,0,0,1.859,6.161,6,6,0,0,0,4.922,2.3,6.423,6.423,0,0,0,5.054-2.207A8.241,8.241,0,0,0,500.764,231.1Z" transform="translate(-436.552 -207.821)" fill="#fff"/>
      <path id="Path_203" data-name="Path 203" d="M526.148,208.206a2.338,2.338,0,0,1-1.692-.675,2.463,2.463,0,0,1,0-3.432,2.322,2.322,0,0,1,1.692-.689,2.374,2.374,0,0,1,1.719.689,2.4,2.4,0,0,1,0,3.411,2.353,2.353,0,0,1-1.719.7Zm1.8,28.911h-3.69V214.061h3.69Z" transform="translate(-448.876 -203.409)" fill="#fff"/>
      <path id="Path_204" data-name="Path 204" d="M559.65,241.531H555.96v-13.15q0-7.341-5.36-7.337a5.815,5.815,0,0,0-4.581,2.081,7.694,7.694,0,0,0-1.81,5.256v13.15H540.52V218.474h3.689V222.3h.091a8.32,8.32,0,0,1,7.567-4.365,7.053,7.053,0,0,1,5.785,2.443q2,2.443,2,7.059v14.09Z" transform="translate(-453.969 -207.823)" fill="#fff"/>
    </g>
    <path id="Path_205" data-name="Path 205" d="M170.508,232.013v-4.455a8.514,8.514,0,0,0,1.838,1.218,14.888,14.888,0,0,0,2.249.912,17.055,17.055,0,0,0,2.374.571,13.531,13.531,0,0,0,2.207.2,8.656,8.656,0,0,0,5.214-1.295,4.869,4.869,0,0,0,1.149-6,6.493,6.493,0,0,0-1.587-1.768,16.177,16.177,0,0,0-2.395-1.532c-.926-.487-1.914-1-2.986-1.545q-1.692-.856-3.154-1.733a13.626,13.626,0,0,1-2.541-1.935,8.08,8.08,0,0,1-1.7-2.395,7.449,7.449,0,0,1-.62-3.14,7.355,7.355,0,0,1,.968-3.836,8.39,8.39,0,0,1,2.541-2.694,11.5,11.5,0,0,1,3.592-1.573,16.316,16.316,0,0,1,4.107-.515q4.772,0,6.954,1.149V205.9a12.593,12.593,0,0,0-7.337-1.984,11.986,11.986,0,0,0-2.478.258,7.031,7.031,0,0,0-2.207.842,4.8,4.8,0,0,0-1.573,1.511,4,4,0,0,0-.606,2.249,4.632,4.632,0,0,0,.459,2.137,5.167,5.167,0,0,0,1.364,1.643A13.6,13.6,0,0,0,178.535,214q1.295.7,2.986,1.532,1.733.856,3.286,1.8a15.056,15.056,0,0,1,2.722,2.1,9.423,9.423,0,0,1,1.859,2.541,7.139,7.139,0,0,1,.689,3.2,8.111,8.111,0,0,1-.933,4.038,7.721,7.721,0,0,1-2.52,2.694,10.988,10.988,0,0,1-3.662,1.5,20.075,20.075,0,0,1-4.365.459,17.691,17.691,0,0,1-1.893-.125c-.752-.084-1.518-.2-2.3-.362a20.26,20.26,0,0,1-2.221-.585,6.545,6.545,0,0,1-1.678-.766Zm27.4-27.6a2.338,2.338,0,0,1-1.692-.675,2.463,2.463,0,0,1,0-3.432,2.322,2.322,0,0,1,1.692-.689,2.375,2.375,0,0,1,1.72.689,2.4,2.4,0,0,1,0,3.411,2.353,2.353,0,0,1-1.72.7Zm1.8,28.911h-3.69V210.266h3.69Zm40.209,0h-3.69V220.082q0-3.829-1.183-5.541a4.485,4.485,0,0,0-3.975-1.713,4.913,4.913,0,0,0-4.017,2.158,8.292,8.292,0,0,0-1.657,5.179v13.15h-3.69V219.629q0-6.8-5.249-6.8a4.868,4.868,0,0,0-4.01,2.04,8.419,8.419,0,0,0-1.573,5.3v13.15h-3.69V210.266h3.69v3.648h.09a7.836,7.836,0,0,1,7.156-4.191,6.657,6.657,0,0,1,6.53,4.769,8.239,8.239,0,0,1,7.658-4.776q7.612,0,7.609,9.391Zm10.762-3.335h-.09v13.937H246.9V210.266h3.69v4.052h.09a8.728,8.728,0,0,1,7.971-4.595,8.438,8.438,0,0,1,6.954,3.1,12.83,12.83,0,0,1,2.5,8.3q0,5.785-2.812,9.266a9.376,9.376,0,0,1-7.7,3.481A7.717,7.717,0,0,1,250.683,229.988Zm-.09-9.3V223.9a6.853,6.853,0,0,0,1.859,4.852,6.628,6.628,0,0,0,9.976-.578,11.787,11.787,0,0,0,1.9-7.136,9.307,9.307,0,0,0-1.775-6.036,5.886,5.886,0,0,0-4.817-2.186,6.544,6.544,0,0,0-5.179,2.242A8.223,8.223,0,0,0,250.592,220.687Zm27.1,12.635H274V199.19h3.69ZM303.7,222.713H287.425a8.634,8.634,0,0,0,2.075,5.945,7.138,7.138,0,0,0,5.451,2.1,11.3,11.3,0,0,0,7.156-2.569v3.467a13.414,13.414,0,0,1-8.04,2.207,9.747,9.747,0,0,1-7.678-3.14q-2.792-3.14-2.792-8.834a12.626,12.626,0,0,1,3.049-8.771,9.792,9.792,0,0,1,7.574-3.39,8.683,8.683,0,0,1,7,2.924q2.482,2.924,2.478,8.124Zm-3.78-3.126a7.543,7.543,0,0,0-1.538-4.977,5.265,5.265,0,0,0-4.219-1.775,5.987,5.987,0,0,0-4.434,1.866,8.467,8.467,0,0,0-2.249,4.887ZM88.761,190.92l-.014.014h.028Zm65.075.014H88.747l-.821.849-.139.153c-.627.654-1.281,1.281-1.935,1.873a41.691,41.691,0,0,1-17.494,9.76c-.188.056-.369.1-.557.153l-.821.2-.188.821c-.07.3-.125.6-.188.912a34.676,34.676,0,0,0-.613,6.411,34.052,34.052,0,0,0,20.334,31.166c.14.07.3.139.453.2.341.153.682.285,1.023.425l.411.153.056.014.028-.014a.238.238,0,0,0,.1.014h65.43a2.552,2.552,0,0,0,2.555-2.555V193.468a2.518,2.518,0,0,0-2.541-2.534Zm-4.421,4.079-27.24,23.746a1.482,1.482,0,0,1-1.949-.014l-8.883-7.873a32.36,32.36,0,0,0-.613-5.639q-.042-.23-.084-.48l-.188-.821-.821-.216c-.2-.042-.4-.1-.6-.139a40.671,40.671,0,0,1-12.649-5.952l-2.945-2.6h55.97ZM112.75,217.422l-2.235,1.977a34.5,34.5,0,0,0,.6-3.425ZM88.322,241.14c-.835-.341-1.664-.724-2.471-1.135a31.545,31.545,0,0,1-17.125-27.922,30.431,30.431,0,0,1,.571-5.91,44.215,44.215,0,0,0,16.554-8.5c1.009-.808,1.977-1.678,2.91-2.59A44.3,44.3,0,0,0,104.835,205.1c1.079.4,2.172.738,3.3,1.037.125.71.244,1.434.313,2.158a32.521,32.521,0,0,1,.2,3.509c0,.64-.014,1.281-.07,1.921a30.74,30.74,0,0,1-1.949,9.113A31.446,31.446,0,0,1,88.322,241.14Zm7.943-1.051a34.111,34.111,0,0,0,11.326-12.733l8.173-7.219,4.434,3.968a1.485,1.485,0,0,0,1.963,0l4.518-4.01,22.68,19.965Zm33.5-22.68,22.694-20.167.042,40.216ZM94.448,233.566a22.387,22.387,0,0,0,3.014-2.659Zm10.115-23.377c-.07-.571-.153-1.135-.258-1.706-.9-.244-1.775-.529-2.645-.849a.014.014,0,0,1-.014-.014c-.23-.07-.439-.167-.668-.258-.494-.2-1-.411-1.49-.654-.341-.153-.7-.313-1.037-.494-.244-.111-.494-.244-.738-.383-.78-.411-1.552-.87-2.3-1.351-.466-.285-.926-.6-1.364-.912a.25.25,0,0,1-.1-.07c-.48-.327-.954-.682-1.42-1.037-.926-.71-1.817-1.462-2.687-2.262-.369-.327-.738-.668-1.093-1.023q-1.392,1.347-2.9,2.59A34.887,34.887,0,0,1,73.1,208.519a25.312,25.312,0,0,0-.452,4.762A25.757,25.757,0,0,0,85.858,235.7a25.011,25.011,0,0,0,2.541,1.211c.508-.2,1.023-.411,1.518-.64a.048.048,0,0,0,.028-.014c.411-.188.821-.383,1.225-.6a11.888,11.888,0,0,0,1.079-.613,2.915,2.915,0,0,0,.341-.2c.188-.111.369-.23.543-.341a.335.335,0,0,0,.111-.084,10.9,10.9,0,0,0,.926-.64,1.184,1.184,0,0,0,.285-.216l3.014-2.659c.028,0,.028,0,.028-.014a25.833,25.833,0,0,0,6.321-11.138,25.136,25.136,0,0,0,.912-6.711,28.03,28.03,0,0,0-.167-2.854ZM89.888,224.794l-2.318,2.318h-.014l-9.593-9.593,2.945-2.973,6.662,6.662,2.318-2.318,8.089-8.1,2.959,2.959Z" transform="translate(11.534 359.584)" fill="#fff"/>
  </g>
</svg>
