<svg width="584" height="105" viewBox="0 0 584 105" fill="none" xmlns="http://www.w3.org/2000/svg">
<path d="M444.104 54.8542H417.763V4.07596H423.707V49.4676H444.104V54.8542Z" fill="#BE1E2D"/>
<path d="M466.274 55.6966C460.921 55.6966 456.64 53.9996 453.443 50.6166C450.246 47.2336 448.648 42.7338 448.648 37.1392C448.648 31.052 450.312 26.3004 453.64 22.8736C456.968 19.4468 461.468 17.7388 467.128 17.7388C472.789 17.7388 476.752 19.403 479.785 22.7313C482.817 26.0595 484.328 30.6797 484.339 36.5809C484.339 42.3616 482.708 46.9927 479.434 50.4743C476.161 53.9558 471.781 55.6966 466.274 55.6966ZM466.701 22.6327C463.318 22.4794 460.056 23.8808 457.844 26.4427C455.677 28.9827 454.593 32.4862 454.582 36.9422C454.582 41.2339 455.677 44.6169 457.877 47.1022C460.111 49.5984 463.34 50.9669 466.691 50.8246C470.446 50.8246 473.325 49.6093 475.351 47.1788C477.376 44.7483 478.383 41.2886 478.383 36.7998C478.383 32.2672 477.376 28.7747 475.351 26.3223C473.336 23.8589 470.446 22.6327 466.701 22.6327Z" fill="#BE1E2D"/>
<path d="M524.552 51.9418C524.552 65.255 518.18 71.9115 505.437 71.9115C501.375 71.9991 497.346 71.1342 493.678 69.3606V63.558C497.214 65.671 501.243 66.8315 505.36 66.952C514.283 66.952 518.739 62.2113 518.739 52.7192V48.7559H518.596C514.327 55.6424 505.294 57.7663 498.408 53.4965C497.236 52.7739 496.174 51.8871 495.255 50.8689C492.507 47.6501 491.127 43.3255 491.127 37.8952C491.127 31.7313 492.605 26.8374 495.572 23.2025C498.539 19.5677 503.05 17.5423 507.736 17.7503C512.619 17.7503 516.243 19.71 518.607 23.6295H518.75V18.6042H524.552V51.9418ZM518.75 38.4535V33.1108C518.794 30.3518 517.743 27.6913 515.827 25.7097C513.954 23.6843 511.305 22.5675 508.546 22.6332C505.272 22.4909 502.119 23.947 500.116 26.5418C498.09 29.1475 497.072 32.8042 497.072 37.501C497.072 41.541 498.047 44.7707 499.995 47.1903C501.846 49.5661 504.725 50.9127 507.736 50.8142C510.768 50.9127 513.692 49.6317 515.684 47.3435C517.786 44.8692 518.881 41.6942 518.75 38.4535Z" fill="#BE1E2D"/>
<path d="M539.289 9.38562C538.292 9.40751 537.34 9.02432 536.628 8.32363C535.172 6.82371 535.172 4.42604 536.628 2.92612C537.329 2.21448 538.292 1.82034 539.289 1.84224C540.296 1.82034 541.27 2.21448 541.993 2.92612C543.471 4.39319 543.482 6.79087 542.015 8.26889C542.015 8.26889 542.004 8.27984 541.993 8.29079C541.281 9.01337 540.307 9.40751 539.289 9.38562ZM542.113 54.8539H536.311V18.5931H542.113V54.8539Z" fill="#BE1E2D"/>
<path d="M583.969 54.8534H578.166V34.1721C578.166 26.4754 575.353 22.6326 569.736 22.6326C566.966 22.5778 564.317 23.7821 562.532 25.9061C560.583 28.2053 559.576 31.1613 559.686 34.1721V54.8534H553.883V18.5927H559.686V24.6142H559.828C562.182 20.2568 566.78 17.6073 571.729 17.7496C575.692 17.7496 578.725 19.0306 580.827 21.5925C582.929 24.1544 583.98 27.8549 583.98 32.6941V54.8534H583.969Z" fill="#BE1E2D"/>
<path d="M44.4663 0L44.4391 0.0271882H44.4935L44.4663 0ZM171.544 0.0271882H44.4391L42.835 1.68567L42.5631 1.98474C41.3396 3.26258 40.0618 4.48605 38.7839 5.64155C29.1185 14.6816 17.3868 21.2204 4.62199 24.7005C4.25495 24.8092 3.9015 24.8908 3.53446 24.9995L1.93036 25.3938L1.56332 26.9979C1.42738 27.5824 1.31863 28.167 1.19628 28.7787C0.407823 32.9113 0 37.0983 0 41.2989C0 67.6578 15.5788 91.5426 39.7083 102.16C39.9802 102.296 40.2929 102.431 40.592 102.554C41.2581 102.853 41.9242 103.111 42.5903 103.383L43.3923 103.682L43.5011 103.709L43.5555 103.682C43.5555 103.682 43.6778 103.709 43.7458 103.709H171.517C174.263 103.709 176.506 101.48 176.506 98.7339V4.97544C176.519 2.25662 174.331 0.0407823 171.625 0.0271882C171.598 0.0271882 171.571 0.0271882 171.544 0.0271882ZM162.912 7.99333L109.718 54.3628C108.617 55.3008 106.999 55.3008 105.912 54.3356L88.5655 38.9607C88.4839 35.2631 88.0897 31.5791 87.3692 27.9495C87.3148 27.6504 87.2605 27.3377 87.2061 27.0115L86.8391 25.4074L85.235 24.9859C84.8407 24.9044 84.4601 24.7956 84.0659 24.7141C75.2297 22.2943 66.8693 18.3656 59.3654 13.0911L53.6151 8.00692H162.912V7.99333ZM91.3115 51.7391L86.9478 55.5998C87.4508 53.3976 87.845 51.1546 88.1169 48.9115L91.3115 51.7391ZM43.6099 98.0542C41.9786 97.3881 40.3609 96.6404 38.7839 95.8384C18.3384 85.3437 5.43764 64.3137 5.34248 41.326C5.34248 37.4517 5.70952 33.591 6.45719 29.7847C18.2841 26.6036 29.3089 20.9485 38.7839 13.1863C40.7551 11.6094 42.6447 9.91009 44.4663 8.12927C53.3976 16.8431 64.1097 23.5042 75.855 27.6912C77.9621 28.466 80.0964 29.1321 82.2986 29.7167C82.5433 31.1033 82.7744 32.5171 82.9104 33.9309C83.1687 36.2011 83.291 38.4985 83.3046 40.7823C83.3046 42.0329 83.2774 43.2836 83.1687 44.5342C82.8152 50.6244 81.5238 56.6194 79.3623 62.3289C73.1226 78.8186 60.0995 91.8417 43.6099 98.0678V98.0542ZM59.1207 96.0015C68.4734 89.721 76.0861 81.1567 81.2383 71.1379L97.1978 57.0408L105.857 64.7895C106.958 65.7546 108.59 65.7546 109.691 64.7895L118.513 56.9593L162.803 95.9471L59.1207 96.0015ZM124.535 51.7119L168.852 12.3434L168.934 90.8765L124.535 51.7255V51.7119ZM55.5727 83.2638C57.6797 81.7141 59.6509 79.9741 61.4589 78.0709L55.5727 83.2638ZM75.3249 37.6149C75.1889 36.5001 75.0258 35.399 74.8219 34.2843C73.0682 33.8085 71.3554 33.2512 69.6561 32.6258C69.6425 32.6258 69.6289 32.6258 69.6289 32.5986C69.1803 32.4627 68.7725 32.2724 68.3239 32.0957C67.3587 31.7014 66.38 31.2936 65.4148 30.8178C64.7487 30.5187 64.0554 30.2061 63.3893 29.8526C62.9135 29.6351 62.4241 29.3768 61.9483 29.105C60.4257 28.3029 58.9168 27.4057 57.4486 26.4677C56.5378 25.9103 55.6406 25.2986 54.7842 24.6869C54.7162 24.6597 54.6483 24.6053 54.5939 24.5509C53.6559 23.912 52.7315 23.2187 51.8207 22.5254C50.0127 21.1388 48.2726 19.6707 46.5734 18.1073C45.8529 17.4684 45.1324 16.8023 44.4391 16.109C42.6311 17.8626 40.7415 19.5483 38.7839 21.166C31.4975 27.2426 23.0148 31.7422 13.8932 34.3523C13.3086 37.4109 13.0095 40.524 13.0095 43.6506C13.0639 61.8395 22.9196 78.5739 38.7975 87.4372C40.4016 88.3208 42.0601 89.1093 43.7594 89.8026C44.7518 89.4083 45.7577 89.0005 46.7229 88.5519C46.7501 88.5519 46.7637 88.5519 46.7773 88.5247C47.5793 88.1577 48.3814 87.7771 49.1698 87.3556C49.8903 86.9886 50.5972 86.5944 51.2769 86.1594C51.508 86.037 51.7255 85.9147 51.943 85.7651C52.3101 85.5476 52.6635 85.3165 53.0034 85.099C53.0849 85.0582 53.1665 85.0039 53.2209 84.9359C53.8462 84.5553 54.4443 84.1338 55.0289 83.6852C55.2328 83.5765 55.4231 83.4269 55.5862 83.2638L61.4725 78.0709C61.4725 78.0709 61.5269 78.0709 61.5269 78.0437C67.3995 71.9399 71.6409 64.4632 73.8703 56.2931C75.053 52.0246 75.6511 47.6201 75.6511 43.1884C75.6375 41.326 75.5288 39.4637 75.3249 37.6149ZM46.6685 66.1353L42.1417 70.6621H42.1145L23.3818 51.9294L29.1321 46.1248L42.1417 59.1343L46.6685 54.6075L62.4649 38.784L68.2423 44.5614L46.6685 66.1353Z" fill="url(#paint0_linear_720_383)"/>
<path d="M198.731 52.7957V45.7887C199.607 46.5551 200.581 47.1901 201.621 47.7047C202.76 48.274 203.942 48.7557 205.157 49.1389C206.384 49.5221 207.632 49.8287 208.891 50.0367C210.04 50.2338 211.201 50.3432 212.361 50.3542C216.018 50.3542 218.755 49.6754 220.562 48.3178C223.31 45.9858 224.065 42.0554 222.368 38.8804C221.711 37.8074 220.868 36.8659 219.872 36.0995C218.689 35.1908 217.43 34.3806 216.106 33.6909C214.65 32.9245 213.095 32.1143 211.409 31.2603C209.635 30.3626 207.982 29.4539 206.449 28.5342C205.004 27.6803 203.657 26.6621 202.453 25.4906C201.336 24.4067 200.439 23.1367 199.782 21.7244C199.103 20.1697 198.775 18.4837 198.807 16.7867C198.753 14.6737 199.278 12.5935 200.329 10.7542C201.325 9.05719 202.694 7.61201 204.325 6.51718C206.055 5.37856 207.96 4.53554 209.975 4.04286C212.088 3.49545 214.255 3.23269 216.434 3.23269C221.437 3.23269 225.083 3.83485 227.371 5.03916V11.7286C223.934 9.52797 219.905 8.43313 215.832 8.60831C214.518 8.60831 213.215 8.73969 211.934 9.0134C210.708 9.25426 209.537 9.70314 208.464 10.3381C207.467 10.9293 206.624 11.7395 205.989 12.7139C205.333 13.7759 204.993 15.0021 205.037 16.2502C205.004 17.4107 205.256 18.5603 205.76 19.6114C206.285 20.6076 207.019 21.4945 207.905 22.1952C208.978 23.0601 210.139 23.8155 211.354 24.4615C212.712 25.195 214.277 25.9942 216.051 26.8701C217.868 27.7678 219.587 28.7094 221.219 29.7057C222.762 30.6363 224.207 31.7421 225.499 33.0011C226.693 34.1617 227.678 35.5083 228.423 36.9973C229.167 38.5629 229.539 40.2817 229.506 42.0225C229.572 44.2341 229.068 46.4238 228.039 48.3726C227.076 50.0805 225.718 51.5366 224.076 52.6095C222.313 53.7372 220.365 54.5364 218.317 54.9634C216.062 55.4561 213.763 55.697 211.453 55.686C210.456 55.6751 209.46 55.6094 208.475 55.4889C207.292 55.3576 206.088 55.1714 204.862 54.9196C203.679 54.6788 202.519 54.3722 201.369 54C200.439 53.7263 199.552 53.3212 198.731 52.7957ZM241.823 9.38564C240.827 9.40753 239.874 9.02434 239.163 8.32365C237.707 6.82373 237.707 4.42605 239.163 2.92614C239.864 2.2145 240.827 1.82036 241.823 1.84225C242.83 1.82036 243.805 2.2145 244.527 2.92614C246.006 4.39321 246.016 6.79089 244.549 8.26891C244.549 8.26891 244.538 8.27986 244.527 8.29081C243.816 9.01339 242.841 9.40753 241.823 9.38564ZM244.659 54.8539H238.856V18.5932H244.659V54.8539ZM307.896 54.8539H302.094V34.0303C302.094 30.0122 301.47 27.1109 300.232 25.3154C298.995 23.5199 296.904 22.6221 293.981 22.6221C291.441 22.644 289.087 23.914 287.664 26.0161C285.901 28.359 284.981 31.2275 285.058 34.1616V54.843H279.256V33.3186C279.256 26.1913 276.507 22.6221 271 22.6221C268.504 22.6002 266.15 23.7936 264.694 25.83C262.953 28.2496 262.078 31.1947 262.22 34.1726V54.8539H256.417V18.5932H262.22V24.3301H262.362C264.552 20.1697 268.92 17.6078 273.617 17.7392C278.336 17.6407 282.551 20.7062 283.887 25.2388C286.58 20.2354 290.598 17.7282 295.93 17.7282C303.911 17.7282 307.896 22.655 307.896 32.4975V54.8539ZM324.822 49.6097H324.68V71.5282H318.877V18.5932H324.68V24.9651H324.822C327.286 20.3668 332.147 17.575 337.358 17.7392C341.573 17.5312 345.635 19.3376 348.296 22.6112C350.912 25.8628 352.226 30.2093 352.226 35.6616C352.226 41.7269 350.748 46.588 347.803 50.2338C344.869 53.8795 340.369 55.905 335.694 55.7079C331.227 55.8283 327.045 53.4854 324.822 49.6097ZM324.68 34.9828V40.0409C324.614 42.8656 325.665 45.6136 327.603 47.6719C331.632 51.7884 338.234 51.8541 342.34 47.8251C342.679 47.4967 342.997 47.1354 343.292 46.7631C345.285 44.0699 346.281 40.3255 346.281 35.5411C346.281 31.5012 345.35 28.3372 343.489 26.049C341.65 23.7717 338.836 22.4908 335.913 22.6112C332.804 22.4908 329.815 23.7936 327.767 26.1365C325.665 28.5999 324.571 31.753 324.68 34.9828ZM367.302 54.8539H361.499V1.17441H367.302V54.8539ZM408.205 38.1687H382.608C382.706 42.2087 383.79 45.318 385.87 47.5186C388.125 49.7849 391.246 50.9892 394.443 50.814C398.548 50.814 402.522 49.3798 405.697 46.7741V52.2264C402.512 54.5364 398.296 55.697 393.052 55.697C387.928 55.697 383.899 54.0547 380.976 50.7593C378.053 47.4638 376.586 42.8327 376.586 36.8659C376.586 31.2275 378.184 26.6292 381.381 23.071C384.37 19.6114 388.728 17.6626 393.293 17.7392C398.034 17.7392 401.712 19.272 404.307 22.3375C406.902 25.403 408.205 29.6619 408.205 35.1142V38.1687ZM402.26 33.2529C402.413 30.4392 401.548 27.6693 399.84 25.4249C398.165 23.5308 395.724 22.5017 393.205 22.6331C390.578 22.5893 388.049 23.6622 386.231 25.5672C384.25 27.6803 383.002 30.3735 382.695 33.2529H402.26Z" fill="url(#paint1_linear_720_383)"/>
<path d="M199.66 104.001V82.5958H208.128C209.996 82.5958 211.569 83.2044 212.85 84.4215C214.13 85.6387 214.77 87.1286 214.77 88.8914C214.77 90.6331 214.13 92.1231 212.85 93.3612C211.569 94.5993 209.996 95.2184 208.128 95.2184H202.619V104.001H199.66ZM202.619 92.5113H207.498C208.925 92.5113 209.985 92.1651 210.678 91.4725C211.391 90.7591 211.748 89.8987 211.748 88.8914C211.748 87.8841 211.402 87.0342 210.709 86.3417C210.038 85.6492 208.999 85.3029 207.593 85.3029H202.619V92.5113Z" fill="#1B1340"/>
<path d="M239.61 101.136C237.512 103.256 234.931 104.315 231.867 104.315C228.803 104.315 226.222 103.256 224.123 101.136C222.025 99.0167 220.975 96.4041 220.975 93.2983C220.975 90.1925 222.025 87.5798 224.123 85.4603C226.222 83.3408 228.803 82.281 231.867 82.281C234.931 82.281 237.512 83.3408 239.61 85.4603C241.709 87.5798 242.758 90.1925 242.758 93.2983C242.758 96.4041 241.709 99.0167 239.61 101.136ZM226.264 87.4434C224.753 89.0173 223.997 90.9689 223.997 93.2983C223.997 95.6276 224.753 97.5897 226.264 99.1846C227.775 100.758 229.642 101.545 231.867 101.545C234.091 101.545 235.959 100.758 237.47 99.1846C238.981 97.5897 239.736 95.6276 239.736 93.2983C239.736 90.9689 238.981 89.0173 237.47 87.4434C235.959 85.8485 234.091 85.0511 231.867 85.0511C229.642 85.0511 227.775 85.8485 226.264 87.4434Z" fill="#1B1340"/>
<path d="M254.103 104.001L247.399 82.5958H250.546L254.89 97.6107C255.1 98.3662 255.3 99.2895 255.488 100.381H255.551C255.698 99.4364 255.887 98.5131 256.118 97.6107L259.99 82.5958H263.2L267.072 97.6107C267.303 98.5131 267.492 99.4364 267.639 100.381H267.702C267.891 99.2895 268.09 98.3662 268.3 97.6107L272.644 82.5958H275.792L269.087 104.001H266.254L262.036 87.9156C261.847 87.244 261.71 86.4676 261.627 85.5862H261.564C261.48 86.4676 261.343 87.244 261.154 87.9156L256.936 104.001H254.103Z" fill="#1B1340"/>
<path d="M282.773 104.001V82.5958H295.71V85.3029H285.732V91.8188H295.269V94.5259H285.732V101.294H295.71V104.001H282.773Z" fill="#1B1340"/>
<path d="M303.96 104.001V82.5958H312.427C314.295 82.5958 315.869 83.2044 317.149 84.4215C318.429 85.6177 319.069 87.0657 319.069 88.7655C319.069 90.4443 318.429 91.8818 317.149 93.0779C315.869 94.2531 314.295 94.8407 312.427 94.8407H310.539V94.9036C310.791 95.0295 311 95.1764 311.168 95.3443L319.888 104.001H315.796L306.95 94.8407H306.919V104.001H303.96ZM306.919 92.2595H311.798C313.225 92.2595 314.285 91.9237 314.977 91.2522C315.691 90.5597 316.047 89.7308 316.047 88.7655C316.047 87.8211 315.701 87.0132 315.009 86.3417C314.316 85.6492 313.277 85.3029 311.892 85.3029H306.919V92.2595Z" fill="#1B1340"/>
<path d="M326.93 104.001V82.5958H339.867V85.3029H329.889V91.8188H339.427V94.5259H329.889V101.294H339.867V104.001H326.93Z" fill="#1B1340"/>
<path d="M348.117 104.001V82.5958H354.602C357.791 82.5958 360.425 83.6241 362.503 85.6806C364.58 87.7162 365.619 90.2554 365.619 93.2983C365.619 96.3411 364.58 98.8908 362.503 100.947C360.425 102.983 357.791 104.001 354.602 104.001H348.117ZM351.076 101.262L354.602 101.294C356.868 101.315 358.767 100.549 360.299 98.9957C361.831 97.4428 362.597 95.5437 362.597 93.2983C362.597 91.0528 361.831 89.1642 360.299 87.6323C358.767 86.0794 356.868 85.3029 354.602 85.3029H351.076V101.262Z" fill="#1B1340"/>
<path d="M384.836 104.001V82.5958H391.509C393.922 82.5958 395.706 83.1205 396.86 84.1697C398.035 85.219 398.623 86.6565 398.623 88.4822C398.623 89.6783 398.266 90.6751 397.553 91.4725C396.86 92.27 396.042 92.7526 395.097 92.9205V92.9835C396.419 93.1514 397.511 93.655 398.371 94.4944C399.252 95.3338 399.693 96.446 399.693 97.831C399.693 99.7407 399.053 101.252 397.773 102.364C396.493 103.455 394.636 104.001 392.201 104.001H384.836ZM387.794 101.294H391.981C395.108 101.294 396.671 100.139 396.671 97.831C396.671 96.6559 396.23 95.785 395.349 95.2184C394.489 94.6518 393.135 94.3685 391.288 94.3685H387.794V101.294ZM387.794 91.6614H391.288C392.799 91.6614 393.891 91.4096 394.562 90.9059C395.255 90.4023 395.601 89.5944 395.601 88.4822C395.601 86.3627 394.163 85.3029 391.288 85.3029H387.794V91.6614Z" fill="#1B1340"/>
<path d="M412.571 104.001V95.1869L405.331 82.5958H408.667L413.043 90.5597C413.504 91.3991 413.83 92.1021 414.019 92.6687H414.082C414.27 92.1021 414.596 91.3991 415.057 90.5597L419.433 82.5958H422.801L415.53 95.1869V104.001H412.571Z" fill="#1B1340"/>
<path d="M440.922 104.001V82.5329H449.862C451.96 82.5329 453.713 83.1309 455.119 84.3271C456.525 85.5023 457.228 87.2126 457.228 89.458C457.228 91.7034 456.525 93.4242 455.119 94.6203C453.713 95.7955 451.96 96.3831 449.862 96.3831H445.329V104.001H440.922ZM445.329 92.228H449.232C450.282 92.228 451.132 91.9972 451.782 91.5355C452.433 91.0738 452.758 90.3813 452.758 89.458C452.758 88.5346 452.433 87.8421 451.782 87.3804C451.132 86.9188 450.282 86.6879 449.232 86.6879H445.329V92.228Z" fill="#1B1340"/>
<path d="M464.169 104.001V82.5329H473.109C475.228 82.5329 476.98 83.0995 478.365 84.2327C479.771 85.3449 480.474 87.0027 480.474 89.2061C480.474 90.3393 480.244 91.3361 479.782 92.1965C479.341 93.0359 478.764 93.6865 478.051 94.1482C477.337 94.5888 476.624 94.9141 475.91 95.124C475.197 95.3338 474.494 95.4387 473.801 95.4387V95.4702C474.242 95.6381 474.798 96.0998 475.47 96.8552L481.859 104.001H476.005L468.639 95.4387H468.576V104.001H464.169ZM468.576 91.7873H472.479C474.829 91.7873 476.005 90.9269 476.005 89.2061C476.005 87.5273 474.829 86.6879 472.479 86.6879H468.576V91.7873Z" fill="#1B1340"/>
<path d="M506.404 101.199C504.305 103.298 501.672 104.347 498.503 104.347C495.334 104.347 492.69 103.298 490.571 101.199C488.472 99.0797 487.423 96.4355 487.423 93.2668C487.423 90.098 488.472 87.4644 490.571 85.3659C492.69 83.2464 495.334 82.1866 498.503 82.1866C501.672 82.1866 504.305 83.2464 506.404 85.3659C508.523 87.4644 509.583 90.098 509.583 93.2668C509.583 96.4355 508.523 99.0797 506.404 101.199ZM493.781 88.3563C492.522 89.6573 491.893 91.2942 491.893 93.2668C491.893 95.2394 492.522 96.8762 493.781 98.1773C495.062 99.4784 496.635 100.129 498.503 100.129C500.371 100.129 501.934 99.4784 503.193 98.1773C504.473 96.8762 505.113 95.2394 505.113 93.2668C505.113 91.2942 504.473 89.6573 503.193 88.3563C501.934 87.0552 500.371 86.4046 498.503 86.4046C496.635 86.4046 495.062 87.0552 493.781 88.3563Z" fill="#1B1340"/>
<path d="M520.398 104.001V86.6879H513.725V82.5329H531.478V86.6879H524.805V104.001H520.398Z" fill="#1B1340"/>
<path d="M554.588 101.199C552.49 103.298 549.856 104.347 546.687 104.347C543.519 104.347 540.875 103.298 538.755 101.199C536.656 99.0797 535.607 96.4355 535.607 93.2668C535.607 90.098 536.656 87.4644 538.755 85.3659C540.875 83.2464 543.519 82.1866 546.687 82.1866C549.856 82.1866 552.49 83.2464 554.588 85.3659C556.708 87.4644 557.768 90.098 557.768 93.2668C557.768 96.4355 556.708 99.0797 554.588 101.199ZM541.966 88.3563C540.707 89.6573 540.077 91.2942 540.077 93.2668C540.077 95.2394 540.707 96.8762 541.966 98.1773C543.246 99.4784 544.82 100.129 546.687 100.129C548.555 100.129 550.118 99.4784 551.378 98.1773C552.658 96.8762 553.298 95.2394 553.298 93.2668C553.298 91.2942 552.658 89.6573 551.378 88.3563C550.118 87.0552 548.555 86.4046 546.687 86.4046C544.82 86.4046 543.246 87.0552 541.966 88.3563Z" fill="#1B1340"/>
<path d="M565.302 104.001V82.5329H568.828L578.617 94.9666C578.974 95.3863 579.31 95.9004 579.625 96.509H579.656C579.614 96.1103 579.593 95.4492 579.593 94.5259V82.5329H584V104.001H580.475L570.685 91.567C570.328 91.1473 569.992 90.6331 569.678 90.0246H569.646C569.688 90.4233 569.709 91.0843 569.709 92.0077V104.001H565.302Z" fill="#1B1340"/>
<defs>
<linearGradient id="paint0_linear_720_383" x1="-1.00297" y1="52.0597" x2="463.195" y2="52.0597" gradientUnits="userSpaceOnUse">
<stop stop-color="#ED2E7C"/>
<stop offset="1" stop-color="#A8288F"/>
</linearGradient>
<linearGradient id="paint1_linear_720_383" x1="33.5452" y1="30.0954" x2="407.397" y2="30.0954" gradientUnits="userSpaceOnUse">
<stop stop-color="#ED2E7C"/>
<stop offset="1" stop-color="#A8288F"/>
</linearGradient>
</defs>
</svg>
