<svg width="584" height="105" viewBox="0 0 584 105" fill="none" xmlns="http://www.w3.org/2000/svg">
<path d="M199.66 104.327V82.9224H208.128C209.996 82.9224 211.569 83.5309 212.85 84.7481C214.13 85.9652 214.77 87.4552 214.77 89.2179C214.77 90.9597 214.13 92.4496 212.85 93.6877C211.569 94.9259 209.996 95.5449 208.128 95.5449H202.619V104.327H199.66ZM202.619 92.8379H207.498C208.925 92.8379 209.985 92.4916 210.678 91.7991C211.391 91.0856 211.748 90.2252 211.748 89.2179C211.748 88.2106 211.402 87.3607 210.709 86.6682C210.038 85.9757 208.999 85.6294 207.593 85.6294H202.619V92.8379Z" fill="white"/>
<path d="M239.61 101.463C237.512 103.582 234.931 104.642 231.867 104.642C228.803 104.642 226.222 103.582 224.123 101.463C222.025 99.3433 220.975 96.7306 220.975 93.6248C220.975 90.519 222.025 87.9063 224.123 85.7868C226.222 83.6673 228.803 82.6076 231.867 82.6076C234.931 82.6076 237.512 83.6673 239.61 85.7868C241.709 87.9063 242.758 90.519 242.758 93.6248C242.758 96.7306 241.709 99.3433 239.61 101.463ZM226.264 87.7699C224.753 89.3438 223.997 91.2954 223.997 93.6248C223.997 95.9541 224.753 97.9163 226.264 99.5111C227.775 101.085 229.642 101.872 231.867 101.872C234.091 101.872 235.959 101.085 237.47 99.5111C238.981 97.9163 239.736 95.9541 239.736 93.6248C239.736 91.2954 238.981 89.3438 237.47 87.7699C235.959 86.1751 234.091 85.3776 231.867 85.3776C229.642 85.3776 227.775 86.1751 226.264 87.7699Z" fill="white"/>
<path d="M254.103 104.327L247.399 82.9224H250.546L254.89 97.9372C255.1 98.6927 255.3 99.6161 255.488 100.707H255.551C255.698 99.763 255.887 98.8396 256.118 97.9372L259.99 82.9224H263.2L267.072 97.9372C267.303 98.8396 267.492 99.763 267.639 100.707H267.702C267.891 99.6161 268.09 98.6927 268.3 97.9372L272.644 82.9224H275.792L269.087 104.327H266.254L262.036 88.2421C261.847 87.5706 261.71 86.7941 261.627 85.9127H261.564C261.48 86.7941 261.343 87.5706 261.154 88.2421L256.936 104.327H254.103Z" fill="white"/>
<path d="M282.773 104.327V82.9224H295.71V85.6294H285.732V92.1453H295.269V94.8524H285.732V101.62H295.71V104.327H282.773Z" fill="white"/>
<path d="M303.96 104.327V82.9224H312.427C314.295 82.9224 315.869 83.5309 317.149 84.7481C318.429 85.9442 319.069 87.3922 319.069 89.092C319.069 90.7708 318.429 92.2083 317.149 93.4044C315.869 94.5796 314.295 95.1672 312.427 95.1672H310.539V95.2302C310.791 95.3561 311 95.503 311.168 95.6708L319.888 104.327H315.796L306.95 95.1672H306.919V104.327H303.96ZM306.919 92.586H311.798C313.225 92.586 314.285 92.2503 314.977 91.5787C315.691 90.8862 316.047 90.0573 316.047 89.092C316.047 88.1477 315.701 87.3397 315.009 86.6682C314.316 85.9757 313.277 85.6294 311.892 85.6294H306.919V92.586Z" fill="white"/>
<path d="M326.93 104.327V82.9224H339.867V85.6294H329.889V92.1453H339.427V94.8524H329.889V101.62H339.867V104.327H326.93Z" fill="white"/>
<path d="M348.117 104.327V82.9224H354.602C357.791 82.9224 360.425 83.9506 362.503 86.0072C364.58 88.0427 365.619 90.5819 365.619 93.6248C365.619 96.6676 364.58 99.2173 362.503 101.274C360.425 103.309 357.791 104.327 354.602 104.327H348.117ZM351.076 101.589L354.602 101.62C356.868 101.641 358.767 100.875 360.299 99.3223C361.831 97.7694 362.597 95.8702 362.597 93.6248C362.597 91.3794 361.831 89.4907 360.299 87.9588C358.767 86.4059 356.868 85.6294 354.602 85.6294H351.076V101.589Z" fill="white"/>
<path d="M384.836 104.327V82.9224H391.509C393.922 82.9224 395.706 83.447 396.86 84.4962C398.035 85.5455 398.623 86.983 398.623 88.8087C398.623 90.0049 398.266 91.0016 397.553 91.7991C396.86 92.5965 396.042 93.0792 395.097 93.2471V93.31C396.419 93.4779 397.511 93.9815 398.371 94.8209C399.252 95.6604 399.693 96.7726 399.693 98.1576C399.693 100.067 399.053 101.578 397.773 102.69C396.493 103.782 394.636 104.327 392.201 104.327H384.836ZM387.794 101.62H391.981C395.108 101.62 396.671 100.466 396.671 98.1576C396.671 96.9824 396.23 96.1115 395.349 95.5449C394.489 94.9783 393.135 94.695 391.288 94.695H387.794V101.62ZM387.794 91.988H391.288C392.799 91.988 393.891 91.7361 394.562 91.2325C395.255 90.7288 395.601 89.9209 395.601 88.8087C395.601 86.6892 394.163 85.6294 391.288 85.6294H387.794V91.988Z" fill="white"/>
<path d="M412.571 104.327V95.5135L405.331 82.9224H408.667L413.043 90.8862C413.504 91.7256 413.83 92.4286 414.019 92.9952H414.082C414.27 92.4286 414.596 91.7256 415.057 90.8862L419.433 82.9224H422.801L415.53 95.5135V104.327H412.571Z" fill="white"/>
<path d="M440.922 104.327V82.8594H449.862C451.96 82.8594 453.713 83.4575 455.119 84.6536C456.525 85.8288 457.228 87.5391 457.228 89.7845C457.228 92.0299 456.525 93.7507 455.119 94.9469C453.713 96.122 451.96 96.7096 449.862 96.7096H445.329V104.327H440.922ZM445.329 92.5546H449.232C450.282 92.5546 451.132 92.3237 451.782 91.862C452.433 91.4004 452.758 90.7079 452.758 89.7845C452.758 88.8612 452.433 88.1687 451.782 87.707C451.132 87.2453 450.282 87.0145 449.232 87.0145H445.329V92.5546Z" fill="white"/>
<path d="M464.169 104.327V82.8594H473.109C475.228 82.8594 476.98 83.426 478.365 84.5592C479.771 85.6714 480.474 87.3292 480.474 89.5327C480.474 90.6659 480.244 91.6627 479.782 92.5231C479.341 93.3625 478.764 94.013 478.051 94.4747C477.337 94.9154 476.624 95.2407 475.91 95.4505C475.197 95.6604 474.494 95.7653 473.801 95.7653V95.7968C474.242 95.9646 474.798 96.4263 475.47 97.1818L481.859 104.327H476.005L468.639 95.7653H468.576V104.327H464.169ZM468.576 92.1139H472.479C474.829 92.1139 476.005 91.2535 476.005 89.5327C476.005 87.8539 474.829 87.0145 472.479 87.0145H468.576V92.1139Z" fill="white"/>
<path d="M506.404 101.526C504.305 103.624 501.672 104.673 498.503 104.673C495.334 104.673 492.69 103.624 490.571 101.526C488.472 99.4062 487.423 96.7621 487.423 93.5933C487.423 90.4246 488.472 87.7909 490.571 85.6924C492.69 83.5729 495.334 82.5132 498.503 82.5132C501.672 82.5132 504.305 83.5729 506.404 85.6924C508.523 87.7909 509.583 90.4246 509.583 93.5933C509.583 96.7621 508.523 99.4062 506.404 101.526ZM493.781 88.6828C492.522 89.9839 491.893 91.6207 491.893 93.5933C491.893 95.5659 492.522 97.2028 493.781 98.5038C495.062 99.8049 496.635 100.455 498.503 100.455C500.371 100.455 501.934 99.8049 503.193 98.5038C504.473 97.2028 505.113 95.5659 505.113 93.5933C505.113 91.6207 504.473 89.9839 503.193 88.6828C501.934 87.3817 500.371 86.7312 498.503 86.7312C496.635 86.7312 495.062 87.3817 493.781 88.6828Z" fill="white"/>
<path d="M520.398 104.327V87.0145H513.725V82.8594H531.478V87.0145H524.805V104.327H520.398Z" fill="white"/>
<path d="M554.588 101.526C552.49 103.624 549.856 104.673 546.687 104.673C543.519 104.673 540.875 103.624 538.755 101.526C536.656 99.4062 535.607 96.7621 535.607 93.5933C535.607 90.4246 536.656 87.7909 538.755 85.6924C540.875 83.5729 543.519 82.5132 546.687 82.5132C549.856 82.5132 552.49 83.5729 554.588 85.6924C556.708 87.7909 557.768 90.4246 557.768 93.5933C557.768 96.7621 556.708 99.4062 554.588 101.526ZM541.966 88.6828C540.707 89.9839 540.077 91.6207 540.077 93.5933C540.077 95.5659 540.707 97.2028 541.966 98.5038C543.246 99.8049 544.82 100.455 546.687 100.455C548.555 100.455 550.118 99.8049 551.378 98.5038C552.658 97.2028 553.298 95.5659 553.298 93.5933C553.298 91.6207 552.658 89.9839 551.378 88.6828C550.118 87.3817 548.555 86.7312 546.687 86.7312C544.82 86.7312 543.246 87.3817 541.966 88.6828Z" fill="white"/>
<path d="M565.302 104.327V82.8594H568.828L578.617 95.2931C578.974 95.7128 579.31 96.227 579.625 96.8355H579.656C579.614 96.4368 579.593 95.7758 579.593 94.8524V82.8594H584V104.327H580.475L570.685 91.8935C570.328 91.4738 569.992 90.9597 569.678 90.3511H569.646C569.688 90.7498 569.709 91.4109 569.709 92.3342V104.327H565.302Z" fill="white"/>
<path d="M44.5878 0.326538H44.5682L44.6269 0.34612H44.6074L44.5878 0.326538ZM172.026 0.34612H44.5682L42.9625 2.01057L42.6883 2.3043C41.4547 3.57712 40.1819 4.81077 38.9091 5.9661C29.1965 15.0521 17.4278 21.612 4.64089 25.0975C4.26883 25.215 3.91636 25.2933 3.54431 25.3913L1.9386 25.7829L1.56654 27.3886C1.42947 27.9761 1.33156 28.5635 1.19449 29.1705C0.411218 33.3219 0 37.5124 0 41.7421C0 68.1775 15.6263 92.1261 39.8098 102.779C40.084 102.916 40.3973 103.053 40.691 103.17C41.3568 103.464 42.0226 103.738 42.6883 104.012L43.4912 104.306H43.6087H43.6674C43.7262 104.326 43.8045 104.345 43.8633 104.326H172.007C174.768 104.326 177 102.093 177 99.3322V5.3199C177 2.59803 174.826 0.365702 172.105 0.365702C172.085 0.365702 172.046 0.365702 172.026 0.365702V0.34612ZM163.371 8.3355L110.03 54.8423C108.934 55.7822 107.308 55.7822 106.212 54.8227L88.8231 39.4118C88.7448 35.7109 88.3531 32.0099 87.6286 28.3677C87.5699 28.074 87.5111 27.7607 87.4719 27.4278L87.0999 25.8221L85.4942 25.3913C85.1025 25.3129 84.7109 25.1954 84.3193 25.1171C75.4487 22.689 67.0677 18.753 59.5483 13.4659L53.7912 8.37466H163.391L163.371 8.3355ZM91.5645 52.2183L87.1782 56.0955C87.6873 53.8828 88.079 51.6505 88.3531 49.379L91.5645 52.2183ZM43.7262 98.6664C42.1009 98.0006 40.4756 97.2565 38.8895 96.4537C18.3873 85.8991 5.46333 64.829 5.36542 41.7617C5.36542 37.8844 5.73747 34.0073 6.48158 30.1888C18.3482 26.997 29.3923 21.3378 38.8895 13.5443C40.8672 11.9581 42.7667 10.2545 44.5878 8.47257C53.5367 17.2061 64.2871 23.903 76.0557 28.0935C78.1706 28.8768 80.305 29.5426 82.5178 30.1301C82.7527 31.5204 82.9877 32.9303 83.1248 34.3597C83.3794 36.6508 83.5164 38.9419 83.5164 41.2329C83.5164 42.4862 83.4968 43.7394 83.3793 44.9926C83.0269 51.1022 81.7345 57.1138 79.5609 62.8317C73.3143 79.3783 60.2532 92.4198 43.7066 98.6664H43.7262ZM59.2741 96.6103C68.6538 90.305 76.2907 81.7281 81.4603 71.6827L97.4587 57.5446L106.133 65.3186C107.23 66.2781 108.875 66.2781 109.971 65.3186L118.822 57.4663L163.234 96.5516L59.2741 96.6103ZM124.873 52.1988L169.324 12.7022L169.402 91.4603L124.873 52.1988ZM55.7298 83.843C57.8447 82.296 59.8224 80.5532 61.624 78.6342L55.7298 83.843ZM75.527 38.0607C75.39 36.9445 75.2333 35.8479 75.0179 34.7122C73.2556 34.2422 71.5323 33.6744 69.8483 33.0477C69.8483 33.0477 69.8287 33.0477 69.8287 33.0282C69.3784 32.8911 68.9671 32.6953 68.5168 32.519C67.5573 32.1274 66.5586 31.7162 65.5991 31.2462C64.9333 30.9525 64.2283 30.6392 63.5626 30.2867C63.0926 30.0713 62.603 29.8167 62.1135 29.5426C60.5861 28.7397 59.0783 27.839 57.6097 26.8991C56.6893 26.3312 55.7886 25.7241 54.9466 25.1171C54.8682 25.0975 54.8095 25.0388 54.7507 24.98C53.8108 24.3338 52.8905 23.6485 51.9701 22.9435C50.149 21.5532 48.4062 20.0846 46.7026 18.518C45.9781 17.8718 45.2536 17.2061 44.5682 16.5207C42.7471 18.2831 40.8672 19.9671 38.8895 21.5924C31.5855 27.6823 23.0674 32.1861 13.9227 34.8101C13.3352 37.8845 13.0415 40.998 13.0415 44.1311C13.1002 62.3617 22.989 79.1433 38.9091 88.0335C40.5148 88.9146 42.1792 89.7175 43.8828 90.4029C44.8815 90.0112 45.8802 89.6 46.8593 89.1496C46.8789 89.1496 46.8984 89.1496 46.918 89.1301C47.7209 88.758 48.5237 88.3859 49.307 87.9551C50.0315 87.5831 50.7365 87.1915 51.4218 86.7607C51.6568 86.6432 51.8722 86.5061 52.0876 86.369C52.4597 86.1536 52.8121 85.9186 53.145 85.7032C53.2234 85.6641 53.3017 85.6053 53.3604 85.5466C53.987 85.1549 54.5941 84.7437 55.1815 84.2934C55.3969 84.1759 55.5732 84.0388 55.7494 83.8625L61.6435 78.6538C61.6435 78.6538 61.7023 78.6538 61.7023 78.6342C67.5964 72.5247 71.8457 65.0248 74.078 56.8201C75.2725 52.5317 75.8599 48.1257 75.8599 43.6807C75.8599 41.8204 75.7424 39.9405 75.527 38.0999V38.0607ZM46.8005 66.6697L42.2575 71.2127H42.238L23.459 52.4337L29.2161 46.6179L42.2575 59.6594L46.8005 55.1164L62.6422 39.2552L68.4384 45.0514L46.8005 66.6893V66.6697Z" fill="white"/>
<path d="M444.23 54.9682H417.904V4.23416H423.845V49.593H444.23V54.9839V54.9682Z" fill="white"/>
<path d="M466.375 55.8169C461.566 56.0369 456.898 54.1824 453.55 50.7404C450.234 47.0626 448.521 42.2218 448.756 37.271C448.756 31.1886 450.422 26.4421 453.739 23.0158C457.322 19.4953 462.21 17.6407 467.224 17.8921C471.97 17.6249 476.591 19.4481 479.876 22.8744C482.909 26.2064 484.418 30.8114 484.434 36.7209C484.685 41.8132 482.925 46.7954 479.53 50.5989C476.104 54.1509 471.31 56.0527 466.375 55.8169ZM466.799 22.7801C463.42 22.6229 460.167 24.0374 457.951 26.5836C455.64 29.5698 454.477 33.2947 454.697 37.0824C454.493 40.7602 455.672 44.375 457.998 47.2355C460.23 49.7345 463.452 51.0861 466.799 50.9604C470.1 51.149 473.29 49.8131 475.459 47.3141C477.487 44.878 478.493 41.4203 478.493 36.941C478.493 32.4145 477.487 28.9254 475.459 26.4735C473.322 23.9588 470.116 22.5915 466.815 22.7801H466.799Z" fill="white"/>
<path d="M524.622 52.0606C524.622 65.3727 518.256 72.021 505.526 72.021C501.455 72.1153 497.431 71.2351 493.769 69.4748V63.6753C497.306 65.7814 501.329 66.9444 505.447 67.0702C514.359 67.0702 518.822 62.3237 518.822 52.8464V48.8858H518.681C514.421 55.7697 505.384 57.8915 498.5 53.6322C497.337 52.9093 496.268 52.0291 495.341 51.0075C492.434 47.3298 490.972 42.7247 491.223 38.0411C491.223 31.8801 492.701 26.9922 495.671 23.3616C498.642 19.731 503.137 17.7035 507.82 17.9078C512.252 17.6721 516.449 19.9353 518.681 23.7859H518.822V18.7565H524.622V52.0763V52.0606ZM518.822 38.5755V33.2318C518.869 30.4813 517.816 27.8252 515.899 25.8448C514.029 23.8174 511.372 22.7015 508.622 22.7643C505.353 22.6229 502.209 24.0688 500.198 26.6778C497.997 29.8841 496.929 33.7347 497.164 37.6325C496.991 41.1059 498.013 44.5165 500.088 47.3141C501.942 49.6873 504.818 51.0232 507.82 50.9289C510.854 51.0232 513.777 49.7502 515.757 47.4555C517.863 44.988 518.948 41.8132 518.822 38.5755Z" fill="white"/>
<path d="M539.349 9.53075C538.358 9.54647 537.4 9.16926 536.692 8.46201C535.231 6.95319 535.231 4.56423 536.692 3.07112C537.4 2.36387 538.358 1.97094 539.349 1.98666C540.354 1.97094 541.329 2.36387 542.052 3.07112C543.529 4.53279 543.545 6.92175 542.083 8.39914C542.083 8.39914 542.068 8.41485 542.052 8.43057C541.345 9.15355 540.37 9.54647 539.349 9.53075ZM542.178 54.9682H536.378V18.7408H542.178V54.9839V54.9682Z" fill="white"/>
<path d="M584 54.9682H578.2V34.3005C578.2 26.615 575.387 22.7643 569.776 22.7643C567.01 22.7015 564.354 23.9117 562.578 26.0334C560.629 28.3438 559.623 31.2829 559.733 34.3005V54.9682H553.934V18.7408H559.733V24.7604H559.875C562.216 20.4068 566.821 17.7507 571.772 17.8921C575.23 17.6721 578.609 19.1023 580.857 21.727C582.947 24.2889 584 27.9823 584 32.8231V54.9682Z" fill="white"/>
<path d="M199.016 52.9093V45.8995C199.896 46.6539 200.87 47.2983 201.908 47.817C203.039 48.3828 204.234 48.87 205.444 49.2472C206.67 49.6402 207.911 49.9388 209.169 50.1431C210.316 50.3474 211.479 50.4417 212.642 50.4574C215.518 50.6617 218.395 49.9545 220.831 48.43C223.581 46.1039 224.32 42.1746 222.638 38.9998C221.978 37.9311 221.145 36.9881 220.139 36.218C218.96 35.3064 217.703 34.5048 216.367 33.8133C214.905 33.0432 213.365 32.2416 211.668 31.3929C209.892 30.497 208.242 29.5854 206.717 28.6739C205.271 27.8252 203.935 26.8036 202.725 25.6405C201.609 24.556 200.713 23.283 200.053 21.8685C199.377 20.3125 199.047 18.6308 199.079 16.9334C199.031 14.8273 199.55 12.737 200.603 10.8981C201.609 9.20068 202.961 7.75473 204.595 6.67027C206.324 5.52294 208.226 4.68994 210.238 4.20272C212.344 3.65263 214.513 3.38545 216.697 3.40116C221.695 3.40116 225.341 3.9984 227.62 5.2086V11.8883C224.194 9.6879 220.155 8.60344 216.084 8.77633C214.78 8.77633 213.475 8.91778 212.186 9.18497C210.961 9.42072 209.797 9.87651 208.713 10.5052C207.723 11.1024 206.874 11.904 206.245 12.8784C205.585 13.9315 205.255 15.1731 205.287 16.4147C205.255 17.5778 205.507 18.7251 206.01 19.7781C206.544 20.784 207.267 21.6641 208.147 22.3557C209.216 23.2201 210.379 23.9745 211.605 24.6189C212.957 25.3576 214.528 26.1592 216.304 27.0236C218.127 27.9195 219.841 28.8625 221.475 29.8526C223.015 30.7799 224.461 31.8958 225.75 33.1532C226.945 34.3162 227.935 35.6679 228.673 37.1453C229.412 38.7169 229.789 40.4301 229.758 42.1746C229.821 44.375 229.318 46.5754 228.296 48.5243C227.337 50.2374 225.986 51.6833 224.336 52.7521C222.575 53.8837 220.626 54.6853 218.583 55.1096C216.336 55.5968 214.025 55.8483 211.715 55.8326C210.725 55.8326 209.735 55.754 208.744 55.644C207.566 55.5183 206.355 55.3297 205.13 55.0782C203.951 54.8424 202.788 54.5281 201.64 54.1509C200.713 53.8837 199.817 53.4751 199 52.9407L199.016 52.9093ZM242.08 9.51502C241.09 9.53074 240.131 9.15353 239.424 8.44627C237.962 6.93745 237.962 4.54849 239.424 3.05539C240.131 2.34813 241.09 1.95521 242.08 1.97093C243.086 1.95521 244.06 2.34813 244.783 3.05539C246.261 4.51706 246.276 6.90602 244.815 8.38341C244.815 8.38341 244.799 8.39912 244.783 8.41484C244.076 9.13781 243.101 9.53074 242.08 9.51502ZM244.909 54.9524H239.109V18.7408H244.909V54.9839V54.9524ZM308.106 54.9524H302.307V34.1433C302.307 30.1355 301.694 27.2279 300.452 25.4362C298.975 23.5345 296.617 22.5129 294.197 22.7486C291.667 22.78 289.309 24.0374 287.879 26.1434C286.119 28.4853 285.207 31.3614 285.27 34.2848V54.9524H279.47V33.4361C279.47 26.3163 276.72 22.7486 271.219 22.7486C268.72 22.7172 266.362 23.9274 264.916 25.9548C263.172 28.3752 262.307 31.3143 262.449 34.2848V54.9524H256.649V18.7408H262.449V24.4775H262.59C264.775 20.3125 269.144 17.7664 273.844 17.8921C278.559 17.7821 282.771 20.8626 284.107 25.389C286.276 20.7211 290.991 17.7664 296.146 17.8764C304.114 17.8764 308.106 22.7958 308.106 32.6345V54.9839V54.9524ZM325.018 49.703H324.876V71.6123H319.077V18.7408H324.876V25.1061H325.018C327.485 20.5168 332.342 17.7192 337.544 17.8764C341.756 17.6721 345.811 19.4795 348.467 22.7486C351.249 26.5049 352.632 31.1257 352.397 35.7936C352.397 41.8603 350.919 46.7168 347.98 50.3631C345.041 54.0094 340.546 56.0369 335.878 55.8326C331.415 55.9583 327.234 53.6165 325.018 49.7345V49.703ZM324.876 35.0863V40.1315C324.813 42.9605 325.866 45.6952 327.8 47.7541C331.823 51.8719 338.424 51.9348 342.526 47.9113C342.872 47.5812 343.186 47.2198 343.469 46.8425C345.638 43.5263 346.691 39.5814 346.456 35.6207C346.66 32.2259 345.67 28.8782 343.674 26.1277C341.835 23.8488 339.021 22.5757 336.098 22.6857C332.986 22.5757 330 23.8645 327.957 26.2063C325.866 28.6739 324.766 31.8172 324.876 35.0549V35.0863ZM367.469 54.9524H361.669V1.32654H367.469V54.9682V54.9524ZM408.349 38.2769H382.761C382.636 41.6874 383.799 45.0351 386.031 47.6284C388.278 49.9073 391.406 51.1018 394.596 50.9289C398.698 50.9289 402.675 49.4987 405.85 46.8897V52.3434C402.109 54.811 397.693 56.0212 393.213 55.8169C388.655 56.0526 384.239 54.2452 381.143 50.8818C378.219 47.597 376.758 42.9605 376.758 37.0038C376.553 31.9744 378.266 27.0393 381.551 23.2201C384.538 19.7624 388.891 17.8135 393.449 17.8921C397.63 17.6563 401.685 19.3538 404.451 22.4814C407.044 25.5462 408.349 29.8055 408.349 35.2435V38.2926V38.2769ZM402.408 33.3575C402.549 30.5442 401.7 27.778 399.987 25.5305C398.321 23.6445 395.869 22.6072 393.355 22.7486C390.73 22.7015 388.2 23.7702 386.392 25.6877C384.412 27.7937 383.17 30.497 382.856 33.3732H402.408V33.3575Z" fill="white"/>
</svg>
