<svg width="244" height="172" viewBox="0 0 244 172" fill="none" xmlns="http://www.w3.org/2000/svg">
<path d="M241.071 88.0711C244.976 84.1658 244.976 77.8342 241.071 73.9289L177.431 10.2893C173.526 6.38408 167.195 6.38408 163.289 10.2893C159.384 14.1946 159.384 20.5262 163.289 24.4315L219.858 81L163.289 137.569C159.384 141.474 159.384 147.805 163.289 151.711C167.195 155.616 173.526 155.616 177.431 151.711L241.071 88.0711ZM0 91H234V71H0L0 91Z" fill="#5675E2"/>
<path d="M140.3 35.38C141.887 34.9133 144.08 34.68 146.88 34.68C149.773 34.68 152.247 35.1467 154.3 36.08L154.72 37.06L127.84 80.46L157.66 128.76C154.487 130.907 151.08 131.98 147.44 131.98C143.893 131.98 140.86 129.973 138.34 125.96L118.04 93.2L95.22 131C93.6333 131.467 91.3467 131.7 88.36 131.7C85.4667 131.7 82.9933 131.233 80.94 130.3L80.52 129.32L110.48 81.02L83.88 37.62C87.0533 35.4733 90.4133 34.4 93.96 34.4C97.6 34.4 100.633 36.36 103.06 40.28L120.28 68.28L140.3 35.38Z" fill="#EC1515"/>
</svg>
