<svg width="238" height="123" viewBox="0 0 238 123" fill="none" xmlns="http://www.w3.org/2000/svg">
<path d="M236.475 64.4749C237.842 63.108 237.842 60.892 236.475 59.5251L214.201 37.2513C212.834 35.8844 210.618 35.8844 209.251 37.2513C207.884 38.6181 207.884 40.8342 209.251 42.201L229.05 62L209.251 81.799C207.884 83.1658 207.884 85.3819 209.251 86.7487C210.618 88.1156 212.834 88.1156 214.201 86.7487L236.475 64.4749ZM0 65.5H234V58.5H0L0 65.5Z" fill="#5675E2"/>
<path d="M128.5 25.7C129.633 25.3667 131.2 25.2 133.2 25.2C135.267 25.2 137.033 25.5333 138.5 26.2L138.8 26.9L119.6 57.9L140.9 92.4C138.633 93.9333 136.2 94.7 133.6 94.7C131.067 94.7 128.9 93.2667 127.1 90.4L112.6 67L96.3 94C95.1667 94.3333 93.5333 94.5 91.4 94.5C89.3333 94.5 87.5667 94.1667 86.1 93.5L85.8 92.8L107.2 58.3L88.2 27.3C90.4667 25.7667 92.8667 25 95.4 25C98 25 100.167 26.4 101.9 29.2L114.2 49.2L128.5 25.7Z" fill="#EC1515"/>
</svg>
